<svg id="eLRy6DPare41" xmlns="http://www.w3.org/2000/svg" xmlns:xlink="http://www.w3.org/1999/xlink" viewBox="0 0 200 200" shape-rendering="geometricPrecision" text-rendering="geometricPrecision" project-id="3d32878115384534afb3a48abe6c510e" export-id="08c2e08e31fa453684e7b677c605fb17" cached="false"><defs><linearGradient id="eLRy6DPare48-fill" x1="-74.3865" y1="-0.0003" x2="74.3871" y2="-0.0003" spreadMethod="pad" gradientUnits="userSpaceOnUse" gradientTransform="translate(0 0)"><stop id="eLRy6DPare48-fill-0" offset="0%" stop-color="#d1f291"/><stop id="eLRy6DPare48-fill-1" offset="100%" stop-color="#a9db61"/></linearGradient></defs><g transform="matrix(1.344321 0 0 1.344321 -96.046385 -306.209453)"><g transform="translate(0 0.000001)"><g transform="translate(0 0.000001)"><g transform="translate(0 0.000001)"><g transform="translate(0 0.000001)"><g><circle r="74.387" transform="translate(145.833 302.167)" fill="url(#eLRy6DPare48-fill)"/><path d="M80.72,338.137c.027.049.05.099.077.148c19.955,35.911,65.243,48.846,101.154,28.891s48.846-65.243,28.891-101.154c-.027-.049-.057-.095-.085-.144L80.72,338.137Z" fill="#a9db61"/></g><g><path d="M183.38,286.938c.744-1.422,1.166-3.038,1.166-4.751c0-2.484-.885-4.765-2.357-6.544.773-1.443,1.213-3.091,1.213-4.84c0-5.671-4.614-10.284-10.284-10.284-1.017,0-1.999.149-2.928.425-1.789-1.665-4.312-2.706-7.106-2.706-2.871,0-4.806,1.037-6.565,2.478-1.864-1.46-3.758-2.276-6.527-2.276-1.866,0-3.503.585-4.776,1.264-1.272-.679-2.91-1.264-4.776-1.264-2.759,0-4.694.845-6.533,2.28-1.799-1.473-3.694-2.482-6.559-2.482-2.789,0-5.309,1.037-7.097,2.697-.92-.271-1.892-.416-2.898-.416-5.671,0-10.284,4.614-10.284,10.284c0,1.749.439,3.397,1.213,4.84-1.471,1.779-2.357,4.06-2.357,6.544c0,1.713.421,3.329,1.165,4.751-3.688,4.171-6.751,7.599-7.584,8.432-.806.806-1.053,1.921-.644,2.909.603,1.455,2.218,1.773,2.748,1.878.769.152,1.739.229,2.883.229c2.882,0,6.31-.474,9.406-1.301c2.351-.628,4.242-1.384,5.748-2.153v30.191c0,4.913,1.786,9.648,5.028,13.332c1.911,2.172,4.247,3.89,6.836,5.063.474,1.373,1.322,2.667,2.496,3.788c1.295,1.237,2.924,2.218,4.711,2.836c2.017.698,4.288,1.056,6.554,1.056c1.244,0,2.488-.108,3.687-.327c3.961-.723,7.125-2.613,8.907-5.323.447-.679.792-1.361,1.034-2.038c2.582-1.173,4.912-2.888,6.819-5.056c3.242-3.685,5.028-8.419,5.028-13.332v-30.224c5.246,2.697,11.865,3.488,15.232,3.488v0c2.353,0,4.862-.25,5.631-2.107.409-.988.162-2.102-.644-2.909-.834-.833-3.897-4.26-7.586-8.432Zm-5.69,7.747c-2.481-.667-4.591-1.552-6.212-2.597-.553-.356-1.049-.731-1.483-1.122l-3.788-3.415v1.023v38.547c0,3.809-1.384,7.479-3.897,10.334-2.491,2.831-5.908,4.668-9.623,5.173l-.09.014c-.008.001-.777.133-1.827.133-1.301,0-2.437-.2-3.307-.573v-14.664c1.741-.35,3.347-1.099,4.661-2.196c1.988-1.66,3.083-3.902,3.083-6.314h-4.538c0,1.043-.516,2.048-1.454,2.831-1.055.881-2.484,1.366-4.022,1.366s-2.966-.485-4.022-1.366c-.937-.783-1.454-1.788-1.454-2.831h-4.538c0,2.412,1.095,4.654,3.083,6.314c1.314,1.097,2.921,1.846,4.661,2.196v14.664c-.87.373-2.005.573-3.307.573-1.05,0-1.82-.131-1.82-.132l-.096-.015c-3.714-.505-7.132-2.342-9.622-5.173-2.513-2.855-3.897-6.526-3.897-10.334v-38.451-.989l-3.773,3.342c-.418.371-.894.726-1.419,1.065-1.632,1.052-3.761,1.943-6.265,2.611-2.423.647-5.161,1.06-7.483,1.135c1.321-1.467,3.006-3.361,4.817-5.407.495-.559.999-1.13,1.508-1.706.502-.568,1.008-1.142,1.514-1.716c1.266-1.436,2.531-2.875,3.723-4.233c1.428.845,3.039,1.383,4.727,1.571.412.046.829.072,1.248.076.374.003.752-.005,1.132-.024.803-.039,1.611-.123,2.388-.231c1.912-.267,3.642-.686,4.674-.963c2.197,1.204,4.515,1.814,6.905,1.814c3.206,0,5.826-1.121,7.335-1.958c1.509.837,4.129,1.958,7.335,1.958c2.391,0,4.709-.61,6.905-1.814c1.04.28,2.787.702,4.714.969.778.108,1.585.19,2.388.228.309.014.617.023.923.023.057,0,.113,0,.169-.001.432-.004.861-.031,1.286-.08c1.685-.194,3.292-.734,4.716-1.582c1.196,1.362,2.466,2.806,3.736,4.248.506.574,1.012,1.148,1.514,1.716.509.576,1.013,1.147,1.508,1.706c1.811,2.047,3.495,3.94,4.816,5.407-2.337-.077-5.094-.494-7.532-1.15Zm-59.928-29.613c-.04.162-.076.324-.106.489-3.034,1.389-5.173,3.94-5.807,6.892-.157-.523-.243-1.077-.243-1.651c0-3.168,2.578-5.746,5.746-5.746.138,0,.274.007.41.016Zm6.751-1.644c.819-.413,1.792-.653,2.834-.653c1.885,0,2.854.623,4.999,2.622l1.562,1.457l1.548-1.471c1.964-1.866,3.082-2.406,4.983-2.406c1.403,0,2.664.676,3.474,1.244l1.301.911l1.301-.911c.81-.567,2.071-1.244,3.474-1.244c1.911,0,2.983.518,4.988,2.411l1.558,1.47l1.558-1.471c2.042-1.928,3.102-2.613,4.988-2.613c1.054,0,2.035.245,2.86.666.723.369,1.324.872,1.745,1.466.426.599.669,1.288.669,2.021c0,.041-.003.081-.004.122l-.025.581-.051,1.194l1.682.512c1.583.482,2.844,1.426,3.577,2.592.432.687.68,1.451.702,2.244.001.038.003.076.003.115c0,.62-.134,1.234-.388,1.818-.054.123-.113.245-.177.366-.009.018-.018.035-.027.053-.288.524-.678,1.018-1.16,1.466-.031.029-.061.058-.093.087-.244.219-.504.418-.776.599-.331.22-.681.41-1.046.572-.477.211-.981.372-1.502.478-.276.056-.556.098-.84.124-.206.019-.414.03-.623.032-.333.003-.672-.007-1.015-.026-.764-.043-1.542-.136-2.286-.253-2.411-.378-4.459-1.008-4.487-1.016l-1.002-.313-.887.561c-1.722,1.089-3.532,1.642-5.379,1.642-3.402,0-5.864-1.831-5.967-1.909l-1.368-1.035-1.368,1.034c-.103.078-2.565,1.91-5.967,1.91-1.847,0-3.657-.552-5.379-1.642l-.887-.56-1.001.311c-.029.009-2.056.633-4.451,1.012-.743.117-1.52.211-2.285.256-.312.018-.622.028-.927.028-.042,0-.084,0-.127-.001-.198-.002-.394-.013-.59-.029-.281-.024-.559-.063-.831-.118-.526-.104-1.035-.263-1.517-.474-.372-.163-.729-.356-1.065-.579-.275-.182-.538-.384-.785-.605-.024-.022-.047-.045-.072-.067-.492-.454-.89-.956-1.183-1.489-.01-.018-.018-.035-.027-.053-.059-.11-.113-.221-.163-.334-.263-.593-.401-1.216-.401-1.847c0-.038.002-.077.003-.115.022-.793.271-1.558.703-2.246.733-1.164,1.994-2.108,3.575-2.589l1.682-.512-.054-1.255-.022-.518c-.002-.041-.004-.081-.004-.123c0-.742.25-1.439.685-2.043.426-.591,1.03-1.091,1.755-1.457Zm48.605,1.628c3.168,0,5.746,2.578,5.746,5.746c0,.601-.093,1.181-.265,1.726-.614-2.984-2.765-5.566-5.824-6.967-.029-.164-.066-.325-.105-.486.148-.011.297-.019.448-.019Zm4.283,15.095c.611-.281,1.189-.62,1.729-1.01.555.884.877,1.928.877,3.047c0,.291-.022.576-.064.855-.845-.962-1.698-1.932-2.542-2.892Zm-66.939,2.036c0-1.118.322-2.163.877-3.047.54.39,1.118.729,1.729,1.01-.844.96-1.696,1.93-2.543,2.892-.041-.279-.063-.564-.063-.855Zm37.681,66.219c-2.6.474-5.569.268-7.942-.553-.446-.154-.872-.341-1.273-.553.218.009.45.014.692.014c2.489,0,4.299-.529,5.574-1.162c1.887.939,3.998,1.162,5.578,1.162.248,0,.484-.005.705-.014-.954.501-2.078.877-3.334,1.106Z" fill="#fff"/><path d="M137.586,291.27c-.051-.057-.102-.113-.155-.169-1.078-1.11-2.579-1.842-4.226-2.059-.337-.045-.678-.067-1.015-.067-3.257,0-5.889,2.034-6.259,4.836-.209,1.583.359,3.199,1.559,4.435c1.078,1.11,2.579,1.842,4.227,2.06.337.044.678.067,1.015.067c1.32,0,2.537-.334,3.543-.918.11.862.179,1.865.179,3.027h4.538c-.002-7.496-2.461-10.381-3.406-11.212Zm-3.095,3.672c-.056.422-.793.892-1.761.892-.138,0-.28-.009-.42-.028-1.221-.161-1.941-.95-1.881-1.401.056-.422.793-.892,1.76-.892.138,0,.28.009.42.028.63.083,1.201.346,1.565.722.109.11.354.398.317.679Z" fill="#fff"/><path d="M158.202,288.975c-.337,0-.678.023-1.015.067-1.647.218-3.148.949-4.226,2.059-.054.055-.104.112-.156.169-.944.831-3.404,3.716-3.404,11.212h4.538c0-1.162.069-2.164.179-3.027c1.006.584,2.222.918,3.542.918h.001c.336,0,.678-.023,1.014-.067c1.647-.218,3.148-.949,4.227-2.06c1.2-1.236,1.768-2.853,1.559-4.435-.369-2.802-3.002-4.836-6.259-4.836Zm-.12,6.831c-.14.019-.281.028-.42.028v0c-.968,0-1.705-.47-1.761-.893-.037-.281.209-.569.316-.679.365-.376.935-.639,1.565-.722.14-.019.282-.028.42-.028.968,0,1.704.47,1.76.893.06.451-.66,1.24-1.88,1.401Z" fill="#fff"/></g></g></g></g></g></g></svg>
