<svg id="eJhnUqpfoaz1" xmlns="http://www.w3.org/2000/svg" xmlns:xlink="http://www.w3.org/1999/xlink" viewBox="0 0 200 200" shape-rendering="geometricPrecision" text-rendering="geometricPrecision" project-id="3d32878115384534afb3a48abe6c510e" export-id="000ff071ab8d4fbf8e88e00f69d6c02f" cached="false"><defs><linearGradient id="eJhnUqpfoaz7-fill" x1="-74.3865" y1="-0.0003" x2="74.3871" y2="-0.0003" spreadMethod="pad" gradientUnits="userSpaceOnUse" gradientTransform="translate(0 0)"><stop id="eJhnUqpfoaz7-fill-0" offset="0%" stop-color="#89b0f7"/><stop id="eJhnUqpfoaz7-fill-1" offset="100%" stop-color="#6991e8"/></linearGradient></defs><g transform="matrix(1.34432 0 0 1.34432 -96.04624 -538.776511)"><g transform="translate(0 0.000001)"><g transform="translate(0 0.000001)"><g transform="translate(0 0.000001)"><g><circle r="74.387" transform="translate(145.833 475.167)" fill="url(#eJhnUqpfoaz7-fill)"/><path d="M80.72,511.137c.027.049.05.099.077.148c19.955,35.911,65.243,48.846,101.154,28.891s48.846-65.243,28.891-101.154c-.027-.049-.057-.095-.085-.144L80.72,511.137Z" fill="#6991e8"/></g><g><path d="M194.017,462.557c-.711-2.305-2.115-4.271-4.062-5.686-1.88-1.366-4.191-2.119-6.505-2.119-1.103,0-2.2.166-3.262.493l-15.477,4.772c-.627.193-1.269.291-1.908.291-1.653,0-3.289-.673-4.489-1.848-1.239-1.212-1.921-2.84-1.921-4.583v-15.652c0-6.099-4.962-11.062-11.062-11.062h-.615-.055c-6.099,0-11.061,4.962-11.061,11.062v15.652c0,3.546-2.876,6.431-6.41,6.431-.639,0-1.281-.098-1.908-.291l-15.477-4.772c-1.062-.327-2.159-.493-3.262-.493-2.315,0-4.625.753-6.505,2.119-1.947,1.415-3.352,3.381-4.062,5.686l-.197.64c-.871,2.824-.59,5.817.791,8.429s3.696,4.53,6.52,5.401l14.962,4.613c1.995.615,3.524,2.102,4.193,4.08s.358,4.088-.854,5.788l-9.59,13.456c-3.54,4.967-2.379,11.888,2.589,15.428l.545.389c1.886,1.344,4.103,2.054,6.412,2.054c3.574,0,6.944-1.736,9.015-4.643L139.763,505c1.167-1.637,2.96-2.605,4.952-2.688.093-.004.186-.008.28-.008c2.104,0,4.011.983,5.232,2.696l9.401,13.192c2.072,2.907,5.442,4.643,9.016,4.643v0c2.309,0,4.526-.71,6.412-2.054l.546-.389c4.967-3.54,6.128-10.461,2.589-15.428l-9.59-13.456c-1.212-1.7-1.523-3.81-.854-5.788s2.198-3.465,4.193-4.08l14.962-4.613c2.823-.871,5.139-2.789,6.52-5.401s1.662-5.605.792-8.429l-.197-.64Zm-4.693,6.902c-.802,1.517-2.147,2.631-3.787,3.137l-14.962,4.613c-3.435,1.059-6.067,3.62-7.219,7.025s-.617,7.037,1.47,9.965l9.59,13.457c2.056,2.885,1.382,6.905-1.503,8.961l-.546.389c-1.096.781-2.382,1.193-3.721,1.193-2.078,0-4.036-1.008-5.24-2.697l-9.401-13.192c-2.102-2.95-5.385-4.642-9.008-4.642-.094,0-.187.002-.28.004-3.511.085-6.68,1.764-8.728,4.638l-9.401,13.192c-1.203,1.689-3.162,2.697-5.24,2.697-1.339,0-2.626-.413-3.721-1.193l-.545-.389c-2.885-2.056-3.559-6.076-1.503-8.961l9.59-13.457c2.086-2.928,2.622-6.56,1.47-9.965s-3.783-5.966-7.219-7.025l-14.962-4.613c-1.64-.506-2.985-1.62-3.787-3.137s-.965-3.256-.46-4.896l.197-.64c.836-2.712,3.302-4.534,6.137-4.534.639,0,1.277.097,1.896.288l15.477,4.772c1.07.33,2.172.497,3.274.497c6.091-.001,11.046-4.965,11.046-11.067v-15.652c0-3.543,2.882-6.425,6.425-6.425h.055.615c3.543,0,6.425,2.882,6.425,6.425v15.652c0,3.001,1.177,5.806,3.315,7.897c2.089,2.044,4.835,3.17,7.732,3.17c1.103,0,2.205-.167,3.274-.497l15.477-4.772c.619-.191,1.257-.288,1.896-.288c2.835,0,5.301,1.822,6.137,4.534l.197.64c.503,1.64.34,3.379-.462,4.896Z" fill="#fff"/><path d="M144.716,442.714c.091.007.184.011.277.011c2.076,0,3.758-1.683,3.758-3.758c0-2.076-1.683-3.758-3.758-3.758-.093,0-.185.004-.277.011-1.946.142-3.482,1.765-3.482,3.747.001,1.982,1.536,3.605,3.482,3.747Z" fill="#fff"/><path d="M144.716,455.992c.093.005.186.007.28.007c3.005,0,5.45-2.445,5.45-5.45s-2.445-5.45-5.45-5.45c-.094,0-.187.002-.28.007-2.876.146-5.17,2.532-5.17,5.443s2.295,5.297,5.17,5.443Zm0-6.205c.088-.032.182-.051.28-.051.449,0,.814.365.814.814s-.365.814-.814.814c-.099,0-.193-.018-.28-.051-.311-.114-.533-.413-.533-.763c0-.351.223-.649.533-.763Z" fill="#fff"/><path d="M151.491,465.006c0-3.581-2.913-6.494-6.494-6.494-.094,0-.187.003-.28.007-3.451.147-6.214,3-6.214,6.487s2.763,6.34,6.214,6.487c.093.004.186.007.28.007c3.58,0,6.494-2.914,6.494-6.494Zm-6.495,1.857c-.095,0-.189-.009-.28-.023-.891-.136-1.577-.905-1.577-1.834s.686-1.698,1.577-1.834c.092-.014.185-.023.28-.023c1.024,0,1.858.833,1.858,1.858c0,1.023-.833,1.856-1.858,1.856Z" fill="#fff"/><path d="M181.887,462.672c-1.976.634-3.065,2.75-2.43,4.727.634,1.976,2.75,3.065,4.727,2.431s3.065-2.75,2.431-4.727-2.752-3.065-4.728-2.431Z" fill="#fff"/><path d="M172.008,464.341c-.565,0-1.125.088-1.666.261-1.386.445-2.516,1.403-3.182,2.697-.666,1.295-.788,2.771-.343,4.157.726,2.264,2.812,3.786,5.189,3.786.565,0,1.125-.088,1.666-.261c1.386-.445,2.516-1.403,3.182-2.697.666-1.295.787-2.771.343-4.157-.727-2.264-2.812-3.786-5.189-3.786Zm.723,5.823c-.058.112-.196.313-.475.403-.082.026-.166.04-.249.04-.295,0-.649-.175-.774-.566-.09-.279-.006-.509.051-.621.058-.112.196-.313.475-.403.082-.026.166-.04.249-.04.295,0,.648.175.774.566.089.28.006.51-.051.621Z" fill="#fff"/><path d="M158.243,467.713c-.673,0-1.34.105-1.985.312-3.41,1.094-5.294,4.758-4.2,8.167.866,2.698,3.35,4.511,6.183,4.511.673,0,1.34-.105,1.985-.311c3.41-1.094,5.294-4.758,4.2-8.168-.866-2.698-3.351-4.511-6.183-4.511Zm.566,8.264c-.186.06-.377.09-.569.09-.81,0-1.52-.519-1.768-1.291-.313-.975.226-2.023,1.201-2.336.186-.06.377-.09.568-.09.81,0,1.52.519,1.768,1.291.315.975-.224,2.023-1.2,2.336Z" fill="#fff"/><path d="M108.115,462.672c-1.976-.634-4.093.454-4.727,2.431-.634,1.976.454,4.093,2.431,4.727c1.976.634,4.093-.454,4.727-2.431.634-1.976-.455-4.093-2.431-4.727Z" fill="#fff"/><path d="M119.66,464.603c-.541-.173-1.101-.261-1.666-.261-2.377,0-4.462,1.522-5.189,3.786-.445,1.386-.323,2.863.343,4.157.666,1.295,1.796,2.253,3.182,2.697.54.173,1.101.261,1.666.261v0c2.377,0,4.462-1.522,5.189-3.786.445-1.386.323-2.863-.343-4.157-.666-1.295-1.796-2.253-3.182-2.697Zm-.89,5.438c-.125.391-.479.566-.774.566v0c-.083,0-.167-.013-.249-.04-.279-.09-.418-.291-.475-.403-.058-.112-.141-.341-.051-.621.125-.391.479-.566.774-.566.083,0,.167.013.249.04.279.09.417.291.475.403.057.112.14.342.051.621Z" fill="#fff"/><path d="M131.761,480.704v0c2.833,0,5.317-1.813,6.183-4.512c1.094-3.41-.79-7.074-4.2-8.167-.644-.207-1.312-.312-1.985-.312-2.832,0-5.317,1.813-6.183,4.512-1.094,3.41.79,7.074,4.2,8.167.644.207,1.312.312,1.985.312Zm-1.77-7.063c.248-.772.958-1.291,1.768-1.291.191,0,.382.03.568.09.975.313,1.514,1.361,1.201,2.336-.248.772-.958,1.291-1.767,1.291v0c-.191,0-.383-.03-.569-.09-.975-.313-1.514-1.361-1.201-2.336Z" fill="#fff"/><path d="M123.374,508.45c-1.69-1.204-4.037-.81-5.242.88s-.811,4.037.88,5.242c1.69,1.204,4.037.81,5.242-.88c1.204-1.691.81-4.038-.88-5.242Z" fill="#fff"/><path d="M131.08,497.641c-.929-.662-2.022-1.012-3.16-1.012-1.76,0-3.421.855-4.442,2.288-1.744,2.447-1.171,5.857,1.276,7.601.929.662,2.022,1.012,3.16,1.012c0,0,0,0,0,0c1.76,0,3.421-.855,4.441-2.288.845-1.186,1.177-2.629.936-4.065-.24-1.436-1.025-2.691-2.211-3.536Zm-2.5,4.911c-.22.308-.538.342-.665.342-.118,0-.294-.026-.47-.151-.365-.26-.451-.77-.191-1.135.22-.309.539-.342.665-.342.117,0,.294.026.469.151.239.17.309.404.33.528.022.124.032.368-.138.607Z" fill="#fff"/><path d="M140.074,485.017c-1.107-.789-2.409-1.206-3.765-1.206-2.098,0-4.076,1.019-5.292,2.726-2.078,2.916-1.396,6.979,1.52,9.057c1.107.789,2.409,1.206,3.765,1.206v0c2.098,0,4.076-1.019,5.292-2.726c1.007-1.413,1.403-3.133,1.116-4.844-.287-1.71-1.223-3.206-2.636-4.213Zm-2.255,6.367c-.353.496-.906.78-1.516.78v0c-.386,0-.758-.119-1.075-.345-.834-.594-1.029-1.757-.435-2.591.353-.496.906-.78,1.516-.78.386,0,.757.119,1.074.345.404.288.672.716.754,1.205.083.49-.03.982-.318,1.386Z" fill="#fff"/><path d="M165.426,513.691c1.204,1.69,3.551,2.084,5.242.88c1.691-1.205,2.084-3.551.88-5.242-1.204-1.69-3.551-2.084-5.242-.88-1.691,1.205-2.085,3.552-.88,5.242Z" fill="#fff"/><path d="M158.6,497.641c-2.448,1.744-3.02,5.154-1.276,7.602c1.021,1.432,2.681,2.288,4.441,2.288c1.138,0,2.231-.35,3.16-1.012c1.186-.845,1.971-2.101,2.212-3.536.241-1.436-.091-2.879-.936-4.065-1.021-1.432-2.681-2.288-4.441-2.288-1.139-.001-2.231.349-3.16,1.011Zm3.825,3.966c.17.239.161.483.14.607s-.091.358-.33.528c-.175.125-.352.151-.469.151-.127,0-.446-.033-.665-.342-.26-.365-.175-.874.191-1.135.175-.125.352-.151.469-.151.126.001.444.034.664.342Z" fill="#fff"/><path d="M158.663,486.538c-1.216-1.707-3.195-2.726-5.292-2.726-1.356,0-2.658.417-3.765,1.206-2.916,2.078-3.598,6.141-1.52,9.057c1.216,1.707,3.195,2.726,5.292,2.726c1.356,0,2.658-.417,3.765-1.206c2.916-2.078,3.598-6.141,1.52-9.057Zm-4.211,5.281c-.317.226-.688.345-1.074.345-.611,0-1.163-.284-1.516-.78-.594-.834-.399-1.996.435-2.591.317-.226.688-.345,1.074-.345.611,0,1.163.284,1.517.78.593.834.398,1.997-.436,2.591Z" fill="#fff"/></g></g></g></g></g></svg>
