<svg id="e4gquNPr7k11" xmlns="http://www.w3.org/2000/svg" xmlns:xlink="http://www.w3.org/1999/xlink" viewBox="0 0 200 200" shape-rendering="geometricPrecision" text-rendering="geometricPrecision" project-id="3d32878115384534afb3a48abe6c510e" export-id="8b17e6895900434ab1a32a7199f03651" cached="false"><defs><linearGradient id="e4gquNPr7k17-fill" x1="-74.3864" y1="-0.0004" x2="74.3871" y2="-0.0004" spreadMethod="pad" gradientUnits="userSpaceOnUse" gradientTransform="translate(0 0)"><stop id="e4gquNPr7k17-fill-0" offset="0%" stop-color="#ffd56c"/><stop id="e4gquNPr7k17-fill-1" offset="100%" stop-color="#e5be51"/></linearGradient></defs><g transform="matrix(1.344321 0 0 1.344321 -778.961443 -770.000178)"><g><g><g><g><circle r="74.387" transform="translate(653.833 647.167)" fill="url(#e4gquNPr7k17-fill)"/><path d="M588.72,683.137c.027.049.05.099.077.148c19.955,35.911,65.243,48.846,101.154,28.891s48.846-65.243,28.891-101.154c-.027-.049-.057-.095-.085-.144L588.72,683.137Z" fill="#e5be51"/></g><g><path d="M643.203,644.713c-.877-.346-1.787-.522-2.703-.522-2.504,0-4.656,1.351-5.481,3.441-.586,1.485-.44,3.191.403,4.68.766,1.353,2.037,2.434,3.58,3.043.877.346,1.787.522,2.703.522c2.504,0,4.656-1.351,5.481-3.441.586-1.485.44-3.191-.403-4.68-.766-1.353-2.037-2.434-3.58-3.043Zm-.231,6.059c-.134.338-.655.575-1.268.575-.34,0-.699-.071-1.04-.206-1.053-.416-1.635-1.334-1.433-1.846.133-.338.655-.575,1.268-.575.34,0,.699.071,1.04.205.573.226,1.048.613,1.301,1.061.098.173.244.503.132.786Z" fill="#fff"/><path d="M662.099,647.756c-.843,1.489-.99,3.194-.403,4.68.825,2.09,2.977,3.441,5.481,3.441v0c.916,0,1.825-.176,2.703-.522c1.543-.609,2.814-1.69,3.58-3.043.843-1.489.989-3.195.403-4.68-.825-2.09-2.977-3.441-5.481-3.441-.916,0-1.826.176-2.703.522-1.543.609-2.814,1.689-3.58,3.043Zm3.942,2.231c.253-.448.727-.834,1.301-1.061.341-.134.7-.205,1.039-.205.613,0,1.134.236,1.268.575.202.512-.38,1.43-1.433,1.846-.341.135-.7.206-1.039.206v0c-.613,0-1.134-.236-1.268-.575-.111-.284.035-.614.132-.786Z" fill="#fff"/><path d="M701.356,623.101l-.004-.333-.102-.317c-.142-.441-1.534-4.423-6.731-8.443-2.994-2.316-6.667-4.177-10.917-5.531-5.207-1.659-11.315-2.56-18.153-2.678-.311-.005-.956-.017-2.645.999-.729.439-1.827,1.183-2.914,2.237-1.301,1.262-2.234,2.634-2.773,4.058-.867-.035-1.78-.055-2.729-.055-.891,0-1.749.018-2.568.049-.539-1.421-1.472-2.791-2.771-4.051-1.087-1.054-2.185-1.798-2.914-2.237-1.688-1.015-2.334-1.004-2.645-.999-6.838.119-12.946,1.02-18.153,2.678-4.249,1.354-7.922,3.214-10.917,5.531-5.196,4.02-6.589,8.002-6.73,8.443l-.102.317-.004.333c-.089,7.226,4.771,14.254,7.081,17.181-3.277,4.154-3.683,11.038-1.203,20.475c1.798,6.841,4.464,12.523,4.577,12.761l.592,1.255l1.388.014c4.975.051,8.253.646,10.226,1.189c1.801,5.419,6.833,9.435,12.876,9.886v.114c0,5.308,4.319,9.627,9.627,9.627h3.442c5.308,0,9.627-4.319,9.627-9.627v-.128c5.969-.51,10.927-4.502,12.712-9.872c1.973-.543,5.251-1.138,10.226-1.189l1.388-.014.592-1.255c.118-.251,2.918-6.218,4.713-13.286c2.312-9.108,1.889-15.773-1.255-19.849c2.277-2.864,7.252-9.972,7.163-17.283Zm-39.184,43.905v.003c-.033-.003-.065-.006-.098-.01.039.003.071.005.098.007Zm-14.019-.116c.309-.023.65-.049,1.007-.076c2.238-.169,5.123-.388,5.123-.388.07-.005.141-.005.21,0c2.336.177,3.969.301,5.113.388.389.029.722.055,1.006.076.125.942-.05,1.7-.532,2.306-.967,1.216-3.193,1.972-5.809,1.972h-.001c-1.184,0-2.361-.165-3.316-.466-2.17-.683-2.741-1.913-2.833-2.839-.004-.21.007-.59.032-.973Zm13.236,19.087c0,2.866-2.332,5.198-5.198,5.198h-3.442c-2.866,0-5.198-2.332-5.198-5.198v-.43c.851-.19,1.684-.454,2.494-.792.674.081,1.385.141,2.128.181v3.42h4.429v-3.42c.743-.04,1.454-.1,2.128-.181.862.36,1.75.635,2.658.827v.395h.001Zm30.712-50.207c-3.444,3.801-4.702,7.098-5.534,9.281-.128.335-.273.716-.403,1.021-.152-.076-.343-.178-.578-.316-.824-.485-3.366-2.608-9.157-11.829-3.284-5.229-5.986-10.165-6.013-10.215l-3.887,2.124c.027.05,2.785,5.088,6.138,10.428c6.999,11.148,9.765,12.774,10.674,13.309.994.585,2.124,1.137,3.289,1.137.378,0,.759-.058,1.141-.192c1.676-.588,2.288-2.191,2.935-3.889.236-.618.499-1.308.836-2.06.546,1.25.858,2.795.927,4.628.104,2.746-.333,6.072-1.297,9.886-1.224,4.841-2.999,9.239-3.888,11.305-3.386.105-6.028.451-8.047.865-.064-2.827-.966-5.537-2.625-7.856-1.671-2.337-3.989-4.122-6.702-5.161l-.792,2.068-.792,2.068c1.9.727,3.519,1.973,4.683,3.601c1.181,1.651,1.805,3.588,1.805,5.602c0,.347-.019.689-.055,1.027-.185,1.715-.827,3.302-1.806,4.645-1.628,2.233-4.188,3.792-7.133,4.151-.426.052-.859.078-1.299.078-.308,0-.613-.013-.916-.038-.757-.063-1.497-.206-2.215-.427-.473-.145-.936-.324-1.388-.537l-.603-.284-.659.096c-.662.096-1.377.167-2.136.214v-1.283-3.776c.978-.134,1.898-.354,2.746-.653.739-.261,1.423-.582,2.041-.959.853-.521,1.581-1.15,2.158-1.876.019-.024.038-.048.056-.073.973-1.257,1.948-3.388,1.228-6.508l-.005-.025c-.027-.125-.091-.417-.168-.699-.058-.212-.113-.382-.173-.533-.522-1.311-1.645-1.496-1.976-1.521h-.002l-.082-.006v0c-.302-.023-1.391-.105-2.653-.201-2.206-.167-4.943-.375-4.943-.375-.292-.022-.589-.022-.88,0c0,0-2.744.208-4.956.375-1.491.113-2.74.207-2.743.208-.632.048-1.212.346-1.633.841-.507.596-.749,1.41-.865,2.904-.054.699-.075,1.539-.046,1.873.129,1.487.699,2.835,1.63,3.956.596.718,1.341,1.344,2.215,1.852.512.298,1.068.555,1.664.769.135.048.271.095.41.139.791.249,1.651.429,2.548.54v3.751v1.283c-.76-.047-1.475-.117-2.137-.214l-.659-.096-.603.284c-.399.188-.808.349-1.224.485-.717.234-1.457.389-2.215.464-.356.035-.716.054-1.08.054-.383,0-.762-.021-1.135-.06-3.013-.319-5.638-1.895-7.296-4.168-.979-1.343-1.622-2.93-1.806-4.645-.036-.338-.055-.68-.055-1.027c0-2.013.624-3.95,1.805-5.602c1.164-1.628,2.784-2.874,4.683-3.601l-.792-2.068-.792-2.068c-2.714,1.039-5.031,2.824-6.702,5.161-1.431,2.001-2.299,4.294-2.552,6.7-.394-2.952-2.31-5.774-4.168-7.935-1.971-2.293-4.969-4.031-8.021-3.818-.764-3.201-1.144-6.047-1.13-8.476.013-2.223.357-4.057,1.022-5.483.378.824.665,1.575.919,2.243.648,1.698,1.259,3.301,2.935,3.889.382.134.763.192,1.141.192c1.165,0,2.295-.552,3.289-1.137.909-.535,3.674-2.161,10.674-13.309c3.353-5.34,6.111-10.378,6.138-10.428l-3.887-2.124c-.027.049-2.73,4.986-6.013,10.215-5.791,9.221-8.333,11.344-9.157,11.829-.235.138-.426.241-.578.316-.13-.305-.275-.686-.403-1.021-.281-.738-.612-1.603-1.058-2.572.083-.091.162-.185.239-.282.613-.771,1.21-1.558,1.662-2.437.47-.914.767-1.916.746-2.95-.022-1.063-.462-2.043-1.029-2.921-1.009-1.56-2.156-3.162-3.905-3.936-1.855-.821-3.982-1.091-5.992-1.302-.591-1.653-.988-3.391-1.021-5.116.542-1.267,2.198-3.843,5.419-6.252c2.599-1.944,5.809-3.517,9.541-4.676c4.642-1.441,10.101-2.238,16.23-2.371.78.36,2.676,1.57,3.817,3.197-2.446.262-3.971.562-4.082.585l.869,4.343c.045-.009,4.534-.893,10.58-.893c6.015,0,10.537.884,10.582.893l.867-4.344c-.109-.022-1.573-.31-3.93-.568c1.14-1.636,3.046-2.852,3.829-3.214c6.129.133,11.588.93,16.23,2.371c1.615.501,3.132,1.081,4.544,1.734-.68.905-1.138,1.986-1.314,3.085-.388,2.421.449,4.685,2.05,6.5c1.594,1.807,3.954,2.861,6.309,3.182.935.128,1.863.168,2.795.126-.92,3.299-2.759,6.391-4.253,8.533Z" fill="#fff"/><path d="M637.608,670.493c-1.359,0-1.768,1.469-1.231,2.358.233.385.642.662,1.231.662.364,0,.659-.106.887-.277.993-.746.697-2.743-.887-2.743Z" fill="#fff"/><path d="M640.93,676.835c-1.014,0-1.499.819-1.457,1.604.039.723.523,1.416,1.457,1.416.577,0,.981-.266,1.216-.638.56-.887.155-2.382-1.216-2.382Z" fill="#fff"/><path d="M642.742,672.154c-1.338,0-1.757,1.425-1.256,2.318.228.407.647.703,1.256.703.136,0,.262-.016.38-.044.258-.061.469-.182.634-.343.76-.741.548-2.312-.634-2.589-.118-.029-.244-.045-.38-.045Z" fill="#fff"/><path d="M670.332,673.223c.23.179.53.29.903.29.592,0,1.003-.28,1.235-.669.531-.889.12-2.351-1.235-2.351-1.576,0-1.876,1.975-.903,2.73Z" fill="#fff"/><path d="M666.697,679.216c.235.373.64.638,1.216.638.953,0,1.439-.724,1.459-1.462.021-.771-.464-1.558-1.459-1.558-1.371.001-1.776,1.496-1.216,2.382Z" fill="#fff"/><path d="M667.385,674.416c.454-.894.027-2.263-1.284-2.263-.1,0-.193.01-.282.025-1.268.213-1.512,1.848-.732,2.608.186.181.43.311.732.362.089.015.183.025.282.025.636.001,1.063-.322,1.284-.757Z" fill="#fff"/><path d="M657.555,634.691c-.233-1.611-1.721-2.682-3.154-3.157-1.071-.355-2.263-.313-3.378-.353-1.039-.037-2.013-.237-3.058-.588-2.043-.688-3.649,3.816-3.486,5.194.274,2.306,2.046,4.088,3.282,5.932c1.22,1.82,2.279,3.601,4.688,3.884c1.534.18,3.069-.797,3.62-2.204.275-.703.241-1.465.191-2.204c0-.001,0-.002,0-.003-.157-2.307,1.644-4.086,1.295-6.501Z" fill="#fff"/></g></g></g></g></g></svg>
