<svg id="epfNj05dFTR1" xmlns="http://www.w3.org/2000/svg" xmlns:xlink="http://www.w3.org/1999/xlink" viewBox="0 0 200 200" shape-rendering="geometricPrecision" text-rendering="geometricPrecision" project-id="3d32878115384534afb3a48abe6c510e" export-id="75522110e2134727aad1deb6b8c4027a" cached="false"><defs><linearGradient id="epfNj05dFTR10-fill" x1="-74.3865" y1="-0.0003" x2="74.3871" y2="-0.0003" spreadMethod="pad" gradientUnits="userSpaceOnUse" gradientTransform="translate(0 0)"><stop id="epfNj05dFTR10-fill-0" offset="0%" stop-color="#ffd56c"/><stop id="epfNj05dFTR10-fill-1" offset="100%" stop-color="#e5be51"/></linearGradient></defs><g transform="matrix(1.344321 0 0 1.344321 -323.236644 -538.776986)"><g transform="translate(0 0.000001)"><g transform="translate(0 0.000001)"><g transform="translate(0 0.000001)"><g transform="translate(0 0.000001)"><g transform="translate(0 0.000001)"><g transform="translate(0 0.000001)"><g><circle r="74.387" transform="translate(314.833 475.167)" fill="url(#epfNj05dFTR10-fill)"/><path d="M249.72,511.137c.027.049.05.099.077.148c19.955,35.911,65.243,48.846,101.154,28.891s48.846-65.243,28.891-101.154c-.027-.049-.057-.095-.085-.144L249.72,511.137Z" fill="#e5be51"/></g><g><path d="M310.348,513.599c-3.856-.519-1.683,3.141.408,4.397c2.092,1.256,3.063,1.84,3.063,1.84s.385-5.718-3.471-6.237Z" fill="#fff"/><path d="M319.652,513.599c-3.856.519-3.471,6.237-3.471,6.237s.971-.583,3.063-1.84c2.091-1.257,4.264-4.917.408-4.397Z" fill="#fff"/><path d="M356.248,464.524l-1.519-1.256c-.268-.221-6.65-5.421-15.102-5.421-1.03,0-2.062.079-3.067.234-2.784.43-4.512.904-6.04,1.404l-.674-2.488c.313-1.935,2.12-10.859,10.156-22.788l4.347-6.453-7.151,3.069c-.173.074-4.292,1.864-8.881,5.803-6.006,5.154-10.048,11.639-11.711,18.774l-1.607,2.81-1.608-2.81c-1.663-7.135-5.705-13.62-11.711-18.774-4.589-3.938-8.708-5.728-8.881-5.803l-7.151-3.069l4.347,6.453c7.981,11.847,9.831,20.845,10.155,22.793l-.673,2.484c-1.528-.5-3.256-.974-6.04-1.404-1.005-.155-2.037-.234-3.067-.234-8.452,0-14.834,5.2-15.102,5.421l-1.518,1.256l1.016,1.689c2.092,3.479,5.192,6.014,9.214,7.533c2.832,1.07,6.051,1.613,9.566,1.613.724,0,1.397-.024,2.004-.06-.982,6.202-2.433,20.203,2.542,29.135c2.96,5.314,3.332,8.989,3.605,11.673.28,2.76.544,5.368,3.532,7.198c1.378.844,2.266,1.657,3.125,2.443c1.574,1.44,3.202,2.929,6.607,2.984l.038.001.038-.001c3.405-.056,5.033-1.545,6.607-2.984.859-.786,1.748-1.598,3.125-2.443c2.987-1.831,3.252-4.438,3.532-7.198.272-2.683.645-6.359,3.604-11.673c4.975-8.932,3.524-22.934,2.542-29.135.607.036,1.28.06,2.004.06c0,0,0,0,0,0c3.515,0,6.733-.543,9.565-1.612c4.022-1.519,7.122-4.054,9.214-7.533l1.018-1.691Zm-25.195-24.206c-3.359,6.522-4.812,11.59-5.417,14.328l-3.965-.405c1.668-5.259,4.814-9.933,9.382-13.923Zm-32.099.013c3.555,3.111,7.384,7.677,9.372,13.91l-3.962.405c-.605-2.737-2.056-7.799-5.41-14.315Zm-5.406,30.446c-5.281,0-8.875-1.346-11.319-3.103c3.663.388,7.695,1.148,11.22,2.589.407.166.782.332,1.129.495-.328.012-.671.019-1.03.019Zm40.805-4.563c-3.875,1.659-5.497,3.342-5.669,3.529l.025.023-.045-.009.742,3.409c.013.058.403,1.89.774,4.687-2.767,1.286-7.794,4.313-8.477,9.538l-.944,6.713l4.537.638.388-2.761c.629.238,1.317.363,2.041.363v0c1.008,0,2.016-.241,2.955-.695-.315,3.821-1.121,7.583-2.777,10.556-3.42,6.14-3.865,10.533-4.16,13.44-.264,2.6-.4,3.161-1.368,3.755-1.752,1.074-2.9,2.124-3.823,2.968-1.387,1.269-1.913,1.75-3.553,1.784-1.64-.034-2.165-.515-3.553-1.784-.923-.844-2.071-1.895-3.823-2.968-.968-.593-1.104-1.155-1.368-3.755-.295-2.907-.74-7.299-4.16-13.44-1.677-3.012-2.483-6.833-2.789-10.705c1.02.55,2.135.845,3.248.845.725,0,1.413-.125,2.042-.363l.388,2.761l4.537-.638-.944-6.713c-.705-5.398-6.044-8.448-8.741-9.659.366-2.729.745-4.508.758-4.565l.738-3.398-.068.013.043-.04c-.172-.186-1.795-1.87-5.669-3.529-3.097-1.326-6.732-2.279-10.86-2.852c1.67-.545,3.569-.934,5.594-.934.797,0,1.593.061,2.367.18c3.229.499,4.723,1.017,6.613,1.673.313.108.631.219.964.332l2.308.781l1.662-6.136l5.701-.582l5.011,8.758l5.011-8.758l5.702.582l1.662,6.136l2.308-.781c.333-.113.652-.223.964-.332c1.891-.656,3.384-1.174,6.613-1.673.774-.12,1.571-.18,2.367-.18c2.024,0,3.922.388,5.591.933-4.129.573-7.765,1.526-10.863,2.853Zm-4.209,19.424c-.094.481-.41.982-.867,1.373-.473.405-1.053.647-1.552.647-.121,0-.418-.017-.555-.178-.15-.175-.106-.504-.08-.637.094-.482.41-.982.867-1.373.473-.405,1.053-.647,1.552-.647.121,0,.418.017.555.178.15.175.106.504.08.637Zm-29.928-.637c.137-.16.434-.178.555-.178.499,0,1.078.242,1.552.647.457.391.772.891.867,1.373.026.133.071.462-.08.637-.137.16-.434.178-.555.178-.499,0-1.079-.242-1.552-.647-.457-.391-.772-.891-.867-1.373-.025-.133-.07-.462.08-.637Zm36.236-14.224c-.362,0-.708-.007-1.037-.019.346-.163.722-.328,1.128-.494c3.528-1.443,7.564-2.203,11.23-2.59-2.444,1.757-6.039,3.103-11.321,3.103Z" fill="#fff"/></g></g></g></g></g></g></g></g></svg>
