<svg id="e5alQiIdnWN1" xmlns="http://www.w3.org/2000/svg" xmlns:xlink="http://www.w3.org/1999/xlink" viewBox="0 0 200 200" shape-rendering="geometricPrecision" text-rendering="geometricPrecision" project-id="3d32878115384534afb3a48abe6c510e" export-id="5909ecdedbc74e17a2da13ca86967077" cached="false"><defs><linearGradient id="e5alQiIdnWN10-fill" x1="-74.3865" y1="-0.0003" x2="74.3871" y2="-0.0003" spreadMethod="pad" gradientUnits="userSpaceOnUse" gradientTransform="translate(0 0)"><stop id="e5alQiIdnWN10-fill-0" offset="0%" stop-color="#ffd56c"/><stop id="e5alQiIdnWN10-fill-1" offset="100%" stop-color="#e5be51"/></linearGradient></defs><g transform="matrix(1.049512 0 0 1.062399 -0.000017 -12.479812)"><g transform="translate(-304.55059 -37.040424)"><g transform="matrix(1.280901 0 0 1.265363 -112.313496 -23.060033)"><g><g><g><g><g><circle r="74.387" transform="translate(399.833 131.167)" fill="url(#e5alQiIdnWN10-fill)"/><path d="M334.72,167.137c.027.049.05.099.077.148c19.955,35.911,65.243,48.846,101.154,28.891s48.846-65.243,28.891-101.154c-.027-.049-.057-.095-.085-.144L334.72,167.137Z" fill="#e5be51"/></g><g><path d="M409.81,141.92c1.072,1.622,2.855,2.57,4.909,2.622.06.001.119.005.179.005v0c1.612,0,3.339-.555,4.862-1.561c2.161-1.429,2.875-3.156,3.093-4.354.293-1.608-.095-3.279-1.121-4.832-1.372-2.075-3.427-3.265-5.638-3.265-1.299,0-2.568.403-3.771,1.199-1.659,1.097-2.842,2.766-3.33,4.701-.264,1.047-.299,2.107-.121,3.101.154.861.468,1.673.938,2.384Zm5.095-6.281c.424-.281.825-.423,1.19-.423.869,0,1.502.815,1.734,1.166.242.367.512.909.421,1.411-.099.546-.636,1.002-1.069,1.288-.755.499-1.586.785-2.281.785-.835,0-1.098-.397-1.184-.527-.608-.918-.212-2.773,1.189-3.7Z" fill="#fff"/><path d="M377.241,138.651c.218,1.198.932,2.925,3.093,4.354c1.523,1.007,3.25,1.561,4.863,1.561.044,0,.087-.003.13-.004c2.075-.038,3.877-.988,4.958-2.623.477-.722.794-1.549.946-2.425.17-.982.133-2.027-.128-3.06-.488-1.934-1.671-3.604-3.33-4.701-1.204-.796-2.472-1.199-3.771-1.199-2.212,0-4.267,1.19-5.638,3.265-1.029,1.553-1.416,3.224-1.123,4.832Zm5.026-2.25c.232-.35.864-1.165,1.734-1.165.365,0,.765.142,1.19.423.674.445,1.174,1.153,1.373,1.941.169.671.101,1.328-.183,1.758-.086.13-.349.527-1.184.527-.695,0-1.526-.286-2.281-.785-.433-.286-.97-.742-1.069-1.288-.093-.502.177-1.044.42-1.411Z" fill="#fff"/><path d="M440.97,138.682c-.93-5.047-2.379-9.113-4.402-12.319c3.251-1.3,6.16-3.417,8.404-6.154c3.042-3.709,4.717-8.398,4.717-13.203c0-11.489-9.348-20.837-20.837-20.837-6.189,0-12.332,5.008-16.626,13.479h-12.477-11.974c-4.295-8.47-10.438-13.479-16.626-13.479-11.49,0-20.837,9.347-20.837,20.837c0,4.805,1.675,9.494,4.717,13.203c2.244,2.737,5.153,4.853,8.404,6.154-2.023,3.206-3.473,7.272-4.402,12.319-.831,4.509-.766,8.724.164,12.496-2.922,1.121-5.492,2.678-7.663,4.652l3.15,3.463c1.713-1.558,3.757-2.8,6.095-3.709.471.973,1.011,1.905,1.624,2.79c1.215,1.758,2.691,3.32,4.405,4.671-.45.292-.894.594-1.328.909-3.431,2.48-6.371,5.633-8.738,9.374l3.956,2.503c2.749-4.346,6.294-7.697,10.575-10.008c2.308,1.117,4.856,1.933,7.604,2.429c2.139.387,4.213.583,6.164.583.225,0,.449-.003.671-.008c3.385,4.099,8.416,6.73,14.039,6.816.094.001.188.004.283.004c5.737,0,10.879-2.652,14.321-6.819.202.004.405.007.609.007v0c1.951,0,4.025-.196,6.164-.583c2.792-.505,5.378-1.338,7.715-2.483c3.711,1.988,7.585,5.121,10.711,10.062l3.956-2.503c-2.367-3.741-5.307-6.895-8.738-9.374-.479-.346-.967-.678-1.465-.997c1.667-1.331,3.106-2.863,4.294-4.583.63-.911,1.183-1.87,1.663-2.873c2.256.852,4.413,2.074,6.303,3.792l3.15-3.463c-2.227-2.025-4.874-3.612-7.889-4.739.911-3.75.968-7.935.144-12.409Zm-40.939,32.284c-.094,0-.189-.001-.283-.003-3.074-.063-5.909-1.148-8.199-2.939c1.074-.284,2.107-.641,3.093-1.074c1.863-.817,3.572-1.899,5.106-3.231.084-.073.168-.147.252-.221c1.598,1.434,3.392,2.59,5.358,3.452c1.001.439,2.05.8,3.14,1.086-2.358,1.838-5.291,2.93-8.467,2.93Zm36.509-22.174c-.062.344-.132.683-.211,1.018-2.573-.527-5.345-.78-8.271-.749-4.631.049-8.48.788-10.281,1.2-.653.15-1.037.256-1.091.272l1.269,4.506c.021-.006.288-.079.758-.188c2.228-.516,9.025-1.832,15.935-.601-.275.504-.574.992-.899,1.462-1.31,1.895-3.006,3.499-5.036,4.784-.989-.434-2.002-.822-3.039-1.163-2.717-.894-5.142-1.315-6.942-1.512-1.919-.209-3.128-.163-3.223-.159l.205,4.677c.034-.001.827-.027,2.133.097c1.136.108,2.66.329,4.416.78-.64.164-1.296.308-1.97.43-1.04.188-2.058.322-3.045.406-.783.066-1.547.102-2.286.102-1.003,0-1.969-.062-2.899-.183-3.048-.398-5.7-1.445-7.931-3.13.716-.417,1.467-.928,2.225-1.541c2.781-2.246,4.341-4.927,4.413-7.57h-4.686c-.09,1.15-.979,2.51-2.472,3.767-1.109.934-2.234,1.552-2.964,1.866-.281.121-.503.197-.643.229-.067-.012-.154-.034-.256-.065-.117-.036-.255-.084-.411-.146-.743-.296-1.885-.894-3.01-1.83-.73-.608-2.405-2.186-2.362-3.82h-4.682c-.019,2.138.932,4.281,2.765,6.217c1.065,1.125,2.422,2.15,3.784,2.921-2.209,1.659-4.829,2.695-7.836,3.096-.948.126-1.934.19-2.958.19-.719,0-1.462-.034-2.221-.096-1.008-.083-2.047-.22-3.11-.412-.632-.114-1.249-.249-1.851-.4c1.713-.444,3.219-.673,4.366-.79c1.428-.145,2.299-.117,2.318-.117l.095-2.337.103-2.34c-.097-.004-1.381-.054-3.406.179-1.78.205-4.134.628-6.759,1.491-1.088.358-2.15.768-3.184,1.228-2.075-1.295-3.805-2.922-5.138-4.849-.315-.456-.606-.93-.875-1.418c2.069-.385,4.297-.572,6.65-.554c4.176.032,7.71.705,9.327,1.069.594.134.93.226.942.23l1.267-4.506c-.059-.017-.506-.141-1.263-.311-1.866-.419-5.62-1.115-10.109-1.162-3.014-.032-5.867.236-8.506.797-.083-.35-.158-.706-.222-1.066-.501-2.802-.442-5.918.174-9.262c1.052-5.714,2.872-10.042,5.408-12.865l.717-.798c.948-.589,2.236-1.425,3.534-2.385c3.916-2.896,5.74-5.283,5.74-7.513c0-2.636-1.156-8.726-5.531-12.907-3.247-3.103-7.525-4.555-12.716-4.32l.213,4.676c3.865-.175,6.983.843,9.27,3.028c3.314,3.167,4.068,7.856,4.084,9.471-.054.167-.558,1.416-4.089,3.983-1.591,1.157-3.161,2.115-3.887,2.545-3.006-.931-5.712-2.744-7.728-5.202-2.357-2.875-3.655-6.509-3.655-10.235c0-8.908,7.247-16.156,16.156-16.156c4.68,0,8.912,4.594,11.739,9.594-1.055.502-2.258,1.288-3.494,2.524l3.31,3.31c1.353-1.353,2.504-1.801,3.113-1.95h13.932h14.393c.609.149,1.76.597,3.113,1.95l3.31-3.31c-1.223-1.223-2.414-2.006-3.461-2.508c2.827-5.007,7.063-9.61,11.748-9.61c8.908,0,16.156,7.248,16.156,16.156c0,3.726-1.298,7.36-3.655,10.235-2.048,2.498-4.808,4.329-7.873,5.247-.688-.405-2.313-1.39-3.961-2.589-3.531-2.567-4.035-3.815-4.089-3.983.016-1.614.77-6.304,4.084-9.471c2.287-2.185,5.405-3.203,9.27-3.028l.213-4.676c-5.191-.235-9.469,1.217-12.716,4.32-4.375,4.181-5.531,10.271-5.531,12.907c0,2.23,1.824,4.618,5.74,7.513c1.539,1.138,3.063,2.103,4.024,2.686l.447.497c2.536,2.823,4.356,7.151,5.408,12.865.61,3.344.668,6.46.167,9.262Z" fill="#fff"/></g></g></g></g></g></g></g></g></svg>
