<svg id="ezyrlI0Pm1B1" xmlns="http://www.w3.org/2000/svg" xmlns:xlink="http://www.w3.org/1999/xlink" viewBox="0 0 200 200" shape-rendering="geometricPrecision" text-rendering="geometricPrecision" project-id="3d32878115384534afb3a48abe6c510e" export-id="dd89397c694d41988fb52e5430dc2349" cached="false"><defs><linearGradient id="ezyrlI0Pm1B9-fill" x1="-74.3864" y1="-0.0003" x2="74.3871" y2="-0.0003" spreadMethod="pad" gradientUnits="userSpaceOnUse" gradientTransform="translate(0 0)"><stop id="ezyrlI0Pm1B9-fill-0" offset="0%" stop-color="#9e76ce"/><stop id="ezyrlI0Pm1B9-fill-1" offset="100%" stop-color="#8858b7"/></linearGradient></defs><g transform="matrix(1.344321 0 0 1.344321 -554.459856 -538.776986)"><g transform="translate(0 0.000001)"><g transform="translate(0 0.000001)"><g transform="translate(0 0.000001)"><g transform="translate(0 0.000001)"><g transform="translate(0 0.000001)"><g><circle r="74.387" transform="translate(486.833 475.167)" fill="url(#ezyrlI0Pm1B9-fill)"/><path d="M421.72,511.137c.027.049.05.099.077.148c19.955,35.911,65.243,48.846,101.154,28.891s48.846-65.243,28.891-101.154c-.027-.049-.057-.095-.085-.144L421.72,511.137Z" fill="#8858b7"/></g><g><path d="M497,478.375c.557.137,1.125.207,1.688.207c2.732,0,4.955-1.572,5.531-3.911.359-1.46-.003-3.029-.994-4.304-.881-1.134-2.188-1.96-3.68-2.328-.557-.137-1.125-.207-1.688-.207-2.733,0-4.955,1.572-5.531,3.911-.359,1.46.003,3.029.994,4.305.881,1.133,2.188,1.96,3.68,2.327Zm-.203-5.531c.035-.142.429-.406,1.059-.406.193,0,.39.025.587.073.483.119.9.367,1.145.682.131.169.174.314.159.377-.035.142-.429.406-1.059.406-.193,0-.39-.025-.587-.073-.483-.119-.9-.367-1.145-.682-.131-.169-.174-.314-.159-.377Z" fill="#fff"/><path d="M468.857,470.366c-.991,1.275-1.354,2.844-.994,4.304.576,2.339,2.799,3.911,5.531,3.911v0c.563,0,1.131-.07,1.688-.207c1.492-.367,2.799-1.194,3.68-2.328.991-1.276,1.354-2.844.994-4.305-.576-2.339-2.798-3.911-5.531-3.911-.563,0-1.131.069-1.688.207-1.492.369-2.799,1.196-3.68,2.329Zm3.636,2.827c.244-.314.662-.563,1.145-.682.197-.048.395-.073.587-.073.629,0,1.024.264,1.059.406.044.179-.336.821-1.303,1.059-.197.048-.394.073-.587.073v0c-.63,0-1.024-.264-1.059-.406-.016-.063.027-.208.158-.377Z" fill="#fff"/><path d="M470.433,453.911l1.631-1.173c0,0-2.774-8.242-5.061-9.814s-6.956-3.812-10.815-4.669c-.001,0,1.238,11.985,14.245,15.656Z" fill="#fff"/><path d="M515.894,438.255c-3.859.858-8.528,3.097-10.815,4.669s-5.061,9.814-5.061,9.814l1.631,1.173c13.007-3.671,14.245-15.656,14.245-15.656Z" fill="#fff"/><path d="M477.267,507.224c-1.725,0-3.123,2.926-3.123,5.432s1.398,3.644,3.123,3.644c1.725-.001,1.725-9.076,0-9.076Z" fill="#fff"/><path d="M494.77,507.224c-1.725,0-1.725,9.075,0,9.075s3.123-1.137,3.123-3.644c0-2.505-1.398-5.431-3.123-5.431Z" fill="#fff"/><path d="M451.15,447.297c2.179,4.139,6.14,9.356,12.96,12.005-1.765,4.238-2.588,9.156-2.337,14.13.295,5.846,2.021,11.246,4.861,15.203.061.086.132.183.211.292.856,1.182,2.861,3.949,4.077,6.966c1.319,3.272,1.323,5.805.014,7.529-3.188,4.194-4.18,9.54-2.528,13.62.974,2.406,2.815,4.105,5.139,4.787.501.68,1.318,1.638,2.501,2.589c3.439,2.766,7.304,3.365,9.942,3.381h.014.014c4.778-.028,8.044-1.854,9.942-3.381c1.183-.951,1.999-1.909,2.501-2.589c2.324-.682,4.165-2.381,5.139-4.787c1.652-4.08.66-9.426-2.528-13.62-1.31-1.723-1.305-4.256.013-7.528c1.215-3.016,3.22-5.784,4.077-6.966.079-.109.15-.206.211-.292c2.839-3.957,4.566-9.356,4.861-15.203.251-4.974-.572-9.893-2.337-14.13c6.82-2.649,10.781-7.866,12.959-12.006c2.935-5.577,3.816-11.444,3.387-14.784-.5-3.891-2.704-4.311-3.628-4.311-.142,0-.286.01-.428.029-2.511.342-7.254,2.212-10.552,3.709-2.834,1.286-7.927,3.783-10.201,6.058-1.968,1.968-3.645,5.284-4.881,8.284-.149-.052-.3-.103-.451-.152l2.26-9.551h-20.72l2.261,9.552c-.15.049-.3.099-.448.151-1.236-3.001-2.912-6.316-4.881-8.284-2.274-2.274-7.367-4.771-10.201-6.058-5.277-2.395-8.983-3.495-10.552-3.709-.142-.019-.286-.029-.428-.029-.924,0-3.128.42-3.628,4.311-.234,1.822-.073,4.196.455,6.685.586,2.772,1.6,5.573,2.93,8.099Zm48.178,68.015c-.515,1.271-1.397,2.01-2.623,2.198l-1.129.172-.546,1.002c-.006.01-.612,1.06-1.96,2.145-1.926,1.55-4.304,2.345-7.068,2.364-6.315-.044-8.859-4.219-9.033-4.517l-.515-.99-1.155-.176c-1.226-.187-2.109-.926-2.623-2.198-1.488-3.675.648-7.875,3.113-10.602c2.537-2.807,6.395-4.805,10.235-4.799c3.906.006,7.655,1.966,10.245,4.83c2.488,2.753,4.566,6.85,3.059,10.571Zm-17.865-74.128h9.074l-.932,3.94-1.068,4.511-1.399,5.911L486,457.002l-1.138-1.455-1.399-5.911-1.068-4.511-.932-3.941Zm-29.131-8.148c4.335,1.151,14.415,5.649,16.983,8.218c1.447,1.448,3.153,4.671,4.679,8.845l.874,2.39l2.291-1.107c.582-.281,1.185-.53,1.807-.748l1.646,6.956l5.387,6.89l5.387-6.89l1.646-6.956c.623.219,1.227.467,1.81.749l2.291,1.107.874-2.39c1.526-4.173,3.231-7.397,4.679-8.845c2.569-2.569,12.648-7.066,16.983-8.217.225,1.72-.035,5.695-2.017,10.28-1.274,2.947-2.968,5.477-5.038,7.518-2.41,2.378-5.274,4.013-8.513,4.859l-2.846.744l1.404,2.584c2.173,3.999,3.228,9.034,2.968,14.178-.247,4.902-1.706,9.549-4.003,12.75-.058.081-.125.173-.198.275-.955,1.319-3.193,4.407-4.619,7.946-.581,1.442-.974,2.826-1.173,4.134-2.42-1.579-5.625-2.889-9.596-2.898v0c-.007,0-.013,0-.02,0s-.013,0-.02,0v0c-3.992.009-7.208,1.332-9.632,2.922-.199-1.316-.592-2.708-1.177-4.159-1.427-3.54-3.664-6.628-4.619-7.946-.074-.102-.141-.194-.198-.275-2.297-3.201-3.755-7.848-4.003-12.75-.26-5.145.794-10.18,2.968-14.178l1.405-2.584-2.845-.744c-3.239-.847-6.103-2.482-8.514-4.86-2.069-2.042-3.764-4.572-5.038-7.519-1.979-4.585-2.238-8.559-2.013-10.279Z" fill="#fff"/></g></g></g></g></g></g></g></svg>
