<svg id="eHnabUIZAjq1" xmlns="http://www.w3.org/2000/svg" xmlns:xlink="http://www.w3.org/1999/xlink" viewBox="0 0 200 200" shape-rendering="geometricPrecision" text-rendering="geometricPrecision" project-id="3d32878115384534afb3a48abe6c510e" export-id="b3c7bdb5b10c48a1b8dbf51613df5063" cached="false"><defs><linearGradient id="eHnabUIZAjq10-fill" x1="-74.3865" y1="-0.0004" x2="74.3871" y2="-0.0004" spreadMethod="pad" gradientUnits="userSpaceOnUse" gradientTransform="translate(0 0)"><stop id="eHnabUIZAjq10-fill-0" offset="0%" stop-color="#9e76ce"/><stop id="eHnabUIZAjq10-fill-1" offset="100%" stop-color="#8858b7"/></linearGradient></defs><g transform="matrix(1.34432 0 0 1.34432 -96.04624 -769.999531)"><g><g><g><g><g><g><g><circle r="74.387" transform="translate(145.833 647.167)" fill="url(#eHnabUIZAjq10-fill)"/><path d="M80.72,683.137c.027.049.05.099.077.148c19.955,35.911,65.243,48.846,101.154,28.891s48.846-65.243,28.891-101.154c-.027-.049-.057-.095-.085-.144L80.72,683.137Z" fill="#8858b7"/></g><g><path d="M110.004,650.935c-2.097,3.545-3.205,7.637-3.205,11.833v.405c0,5.955,2.192,11.56,6.174,15.783c1.179,1.25,2.473,2.334,3.856,3.244l-4.404.759c-1.963.339-1.438,3.383.525,3.044l7.734-1.334c.302,1.686.885,3.276,1.696,4.721l-7.984,3.997c-1.781.892-.398,3.654,1.383,2.762l8.401-4.206c2.786,3.197,6.885,5.222,11.449,5.222c3.818,0,7.406-1.399,10.174-3.908c2.768,2.509,6.356,3.908,10.174,3.908c4.418,0,8.4-1.897,11.177-4.919l7.795,3.903c1.781.892,3.164-1.87,1.383-2.762l-7.303-3.657c.914-1.533,1.566-3.239,1.892-5.057l7.708,1.329c1.963.338,2.488-2.706.525-3.044l-4.471-.771c1.377-.907,2.665-1.987,3.839-3.232c3.981-4.223,6.173-9.828,6.173-15.783v-.405c0-4.247-1.133-8.38-3.277-11.953-1.733-2.888-4.058-5.31-6.794-7.095c2.618-7.055,6.588-17.884,8.297-23.237.334-.862.593-1.759.77-2.668c1.709-8.781-4.379-17.38-13.571-19.169-1.141-.222-2.303-.335-3.453-.335-3.827,0-7.558,1.255-10.503,3.535-3.028,2.343-5.093,5.672-5.813,9.374-.084.433-.286,1.562-.295,1.61l-.014.087c-.733,5.252-1.872,16.301-1.812,26.337h-5.227c.06-10.036-1.079-21.085-1.812-26.337l-.014-.087c-.008-.048-.21-1.178-.294-1.61-.72-3.702-2.785-7.031-5.813-9.374-2.946-2.28-6.676-3.535-10.503-3.535-1.15,0-2.312.112-3.453.335-9.192,1.789-15.28,10.388-13.571,19.169.177.909.436,1.806.771,2.668c1.72,5.385,5.717,16.288,8.348,23.374-2.685,1.799-4.964,4.215-6.658,7.079Zm10.595-4.045l1.78-.956-.705-1.893c-2.064-5.542-7.07-19.077-8.968-25.035l-.024-.074-.029-.072c-.245-.622-.434-1.271-.562-1.929-1.221-6.273,3.224-12.435,9.908-13.736.85-.165,1.714-.249,2.568-.249c2.806,0,5.529.911,7.668,2.566c2.17,1.679,3.588,3.96,4.101,6.595.069.353.236,1.285.273,1.496.772,5.549,1.999,17.623,1.726,27.908l-.063,2.378h14.693l-.063-2.378c-.273-10.285.953-22.358,1.725-27.908.038-.212.205-1.143.274-1.496.513-2.636,1.931-4.916,4.101-6.595c2.138-1.655,4.861-2.566,7.668-2.566.854,0,1.718.084,2.567.249c6.684,1.301,11.129,7.463,9.908,13.736-.128.658-.317,1.308-.563,1.93l-.028.072-.024.074c-1.889,5.931-6.871,19.404-8.925,24.921l-.714,1.919l1.817.945c2.753,1.432,5.083,3.648,6.739,6.408c1.712,2.853,2.617,6.162,2.617,9.569v.405c0,6.94-3.743,12.961-9.184,15.88-.264-1.355-.713-2.666-1.347-3.918l-2.067,1.046-2.067,1.046c.547,1.08.896,2.224,1.045,3.414.005.043.011.086.016.129l-.374-.064-2.455-.423c-.697-.12-1.211.187-1.499.647-.523.836-.293,2.179.974,2.398l3.249.56c-.095.522-.23,1.03-.399,1.522-.273.794-.639,1.545-1.083,2.241l-2.626-1.315c-1.781-.892-3.164,1.87-1.383,2.762l1.903.953c-1.836,1.548-4.206,2.482-6.789,2.482-3.285,0-6.326-1.492-8.343-4.093l-.384-.495c-.028-.444-.077-1.305-.117-2.382-.049-1.341-.083-3.016-.042-4.634.035-1.35.123-2.66.299-3.703l1.045-1.045l4.956-4.956h-15.175l4.956,4.956l1.012,1.012c.18,1.048.269,2.371.304,3.735.042,1.618.008,3.292-.042,4.634-.041,1.107-.092,1.987-.119,2.419l-.355.457c-2.017,2.601-5.058,4.093-8.343,4.093-2.736,0-5.232-1.047-7.108-2.761l1.345-.673c1.781-.892.398-3.654-1.383-2.762l-1.954.978c-.35-.596-.644-1.229-.873-1.891-.172-.498-.308-1.012-.405-1.54l3.223-.556c1.266-.218,1.496-1.562.974-2.398-.287-.46-.802-.767-1.499-.647l-2.497.431-.304.052c.004-.035.009-.069.013-.104.148-1.197.498-2.348,1.048-3.434l-2.067-1.046-2.067-1.046c-.642,1.269-1.094,2.597-1.357,3.971-5.495-2.899-9.284-8.952-9.284-15.934v-.405c0-3.367.885-6.643,2.56-9.474c1.617-2.737,3.901-4.951,6.604-6.403Z" fill="#fff"/><path d="M157.206,666.062c.685,0,1.371-.096,2.038-.284c3.701-1.046,5.924-4.689,4.954-8.122-.779-2.759-3.365-4.613-6.433-4.613-.685,0-1.371.096-2.038.284-3.701,1.046-5.923,4.689-4.954,8.122.78,2.759,3.365,4.613,6.433,4.613Zm-.219-8.276c.258-.073.52-.11.779-.11.956,0,1.768.51,1.974,1.24.271.958-.533,2.058-1.754,2.403-.258.073-.52.11-.779.11-.956,0-1.768-.51-1.974-1.24-.271-.958.532-2.058,1.754-2.403Z" fill="#fff"/><path d="M127.73,657.656c-.97,3.433,1.252,7.076,4.954,8.122.668.189,1.353.284,2.038.284v0c3.068,0,5.653-1.854,6.433-4.613.97-3.433-1.253-7.076-4.954-8.122-.668-.189-1.353-.284-2.038-.284-3.069-.001-5.654,1.853-6.433,4.613Zm8.966,2.533c-.206.73-1.018,1.24-1.974,1.24-.259,0-.521-.037-.779-.11-1.222-.345-2.025-1.445-1.754-2.403.206-.73,1.018-1.24,1.974-1.24.259,0,.521.037.779.11c1.221.345,2.024,1.445,1.754,2.403Z" fill="#fff"/><path d="M133.115,644.359c-.362-7.367-1.113-14.714-2.248-22.002-.607-3.901-1.879-15.113-8.643-11.591-5.682,2.715-3.942,10.208-3.016,15.286c1.206,6.609,3.58,12.937,5.957,19.196c2.65-.296,5.3-.592,7.95-.889Z" fill="#fff"/><path d="M172.397,626.052c.926-5.077,2.666-12.571-3.016-15.286-6.763-3.522-8.035,7.69-8.643,11.591-1.135,7.288-1.886,14.635-2.248,22.002c2.65.296,5.3.593,7.95.889c2.377-6.259,4.751-12.586,5.957-19.196Z" fill="#fff"/></g></g></g></g></g></g></g></g></svg>
