<svg id="eJTpdBuxH6S1" xmlns="http://www.w3.org/2000/svg" xmlns:xlink="http://www.w3.org/1999/xlink" viewBox="0 0 200 200" shape-rendering="geometricPrecision" text-rendering="geometricPrecision" project-id="3d32878115384534afb3a48abe6c510e" export-id="c4556b7f189844c6ad9ed43bccf7ccd2" cached="false"><defs><linearGradient id="eJTpdBuxH6S6-fill" x1="-74.3865" y1="-0.0003" x2="74.3871" y2="-0.0003" spreadMethod="pad" gradientUnits="userSpaceOnUse" gradientTransform="translate(0 0)"><stop id="eJTpdBuxH6S6-fill-0" offset="0%" stop-color="#ff7898"/><stop id="eJTpdBuxH6S6-fill-1" offset="100%" stop-color="#e25973"/></linearGradient></defs><g transform="matrix(1.344321 0 0 1.34432 -208.969319 -75.506355)"><g><g><g transform="translate(0 -0.613015)"><circle r="74.387" transform="translate(229.833 131.167)" fill="url(#eJTpdBuxH6S6-fill)"/><path d="M164.72,167.137c.027.049.05.099.077.148c19.955,35.911,65.243,48.846,101.154,28.891s48.846-65.243,28.891-101.154c-.027-.049-.057-.095-.085-.144L164.72,167.137Z" fill="#e25973"/></g><g><path d="M183.772,123.377c1.875,9.062,4.576,16.763,4.69,17.086l.54,1.531h11.785l-8.131,9.074.625,1.367c.079.174,1.988,4.306,5.47,8.473c2.085,2.495,4.311,4.494,6.618,5.942c2.999,1.883,6.135,2.838,9.32,2.838c5.713,0,10.575-2.671,14.061-7.724.471-.683.886-1.366,1.25-2.026.364.66.779,1.343,1.25,2.026c3.486,5.053,8.349,7.724,14.061,7.724c3.186,0,6.322-.955,9.32-2.838c2.306-1.448,4.533-3.447,6.617-5.942c3.483-4.167,5.391-8.299,5.47-8.473l.625-1.367-8.131-9.074h11.786l.54-1.532c.114-.324,2.815-8.025,4.689-17.088c1.112-5.379,1.695-10.116,1.733-14.078.05-5.334-.855-9.24-2.767-11.942-1.839-2.599-4.61-3.972-8.013-3.972-1.938,0-4.141.444-6.547,1.321-6.303,2.295-11.955,5.6-16.798,9.82-2.505,2.183-4.795,4.613-6.847,7.257v-1.133c0-1.49-.472-2.872-1.272-4.006.096-1.397.674-4.602,3.892-5.794c1.189-.44,1.796-1.76,1.355-2.949-.44-1.189-1.76-1.796-2.949-1.355-3.046,1.128-5.209,3.415-6.255,6.615-.077.235-.144.466-.204.693-.495-.112-1.01-.173-1.538-.173h-.094c-.658,0-1.294.094-1.898.265-.066-.255-.141-.518-.228-.784-1.046-3.2-3.209-5.487-6.255-6.615-1.189-.44-2.509.167-2.949,1.355-.44,1.189.167,2.509,1.355,2.949c1.694.627,2.82,1.809,3.444,3.613.436,1.262.466,2.42.464,2.76-.574,1.013-.904,2.182-.904,3.427v1.056c-2.037-2.615-4.308-5.019-6.788-7.181-4.843-4.221-10.495-7.525-16.798-9.82-2.406-.876-4.609-1.321-6.548-1.321-3.404,0-6.176,1.374-8.016,3.974-1.913,2.703-2.817,6.609-2.767,11.943.04,3.962.624,8.699,1.737,14.078Zm43.772-12.729c0-1.312,1.068-2.38,2.38-2.38h.094c.645,0,1.23.258,1.66.676.04.046.082.09.126.132.37.42.595.97.595,1.572v8.119c-.979,1.779-1.768,3.452-2.398,4.946-.643-1.524-1.451-3.233-2.457-5.052v-8.013Zm-38.992-10.641c.982-1.388,2.339-2.034,4.268-2.034c1.401,0,3.075.351,4.977,1.044c5.732,2.087,10.867,5.078,15.263,8.889c3.523,3.054,6.588,6.644,9.11,10.67.274.437.535.87.784,1.297c2.824,4.839,4.128,8.992,4.59,10.704.142.527.205.823.208.835l2.249,11.114l2.249-11.114c.002-.011.047-.228.148-.619.397-1.538,1.661-5.777,4.59-10.819.237-.409.486-.823.745-1.241c2.519-4.055,5.587-7.672,9.118-10.75c4.416-3.849,9.582-6.866,15.353-8.968c1.901-.692,3.576-1.044,4.977-1.044c1.928,0,3.284.646,4.266,2.033c2.455,3.468,2.56,11.42.296,22.392-1.331,6.453-3.144,12.325-4.019,15.006h-18.787l12.936,14.435c-.767,1.411-2.176,3.769-4.145,6.125-1.776,2.125-3.638,3.806-5.536,4.998-2.256,1.417-4.571,2.135-6.88,2.135-4.154,0-7.589-1.895-10.208-5.632-.563-.804-1.031-1.614-1.414-2.369-1.038-2.046-1.455-3.69-1.459-3.708l-.221-.912-2.009-8.279-2.025,8.343-.206.848c-.005.022-.429,1.683-1.474,3.737-.363.714-.801,1.476-1.324,2.233-2.628,3.809-6.088,5.74-10.283,5.74-8.527,0-14.603-9.678-16.559-13.26l12.933-14.433h-18.788c-.875-2.68-2.688-8.553-4.02-15.005-2.263-10.97-2.158-18.922.297-22.391Z" fill="#fff"/></g></g></g></g></svg>
