<svg id="ebOI6PZyCFL1" xmlns="http://www.w3.org/2000/svg" xmlns:xlink="http://www.w3.org/1999/xlink" viewBox="0 0 200 200" shape-rendering="geometricPrecision" text-rendering="geometricPrecision" project-id="3d32878115384534afb3a48abe6c510e" export-id="bde831f550194746be489e946c73a131" cached="false"><defs><linearGradient id="ebOI6PZyCFL7-fill" x1="-74.3864" y1="-0.0003" x2="74.3871" y2="-0.0003" spreadMethod="pad" gradientUnits="userSpaceOnUse" gradientTransform="translate(0 0)"><stop id="ebOI6PZyCFL7-fill-0" offset="0%" stop-color="#ffd56c"/><stop id="ebOI6PZyCFL7-fill-1" offset="100%" stop-color="#e5be51"/></linearGradient></defs><g transform="matrix(1.344321 0 0 1.344321 -778.961443 -306.209453)"><g transform="translate(0 0.000001)"><g transform="translate(0 0.000001)"><g transform="translate(0 0.000001)"><g><circle r="74.387" transform="translate(653.833 302.167)" fill="url(#ebOI6PZyCFL7-fill)"/><path d="M588.72,338.137c.027.049.05.099.077.148c19.955,35.911,65.243,48.846,101.154,28.891s48.846-65.243,28.891-101.154c-.027-.049-.057-.095-.085-.144L588.72,338.137Z" fill="#e5be51"/></g><g><path d="M679.879,343.3c2.155,0,3.842-.377,3.913-.393l1.819-.412v-42.412c0-7.645-2.977-14.832-8.383-20.237-1.601-1.601-3.36-2.988-5.239-4.148c1.61-2.421,2.846-5.267,3.423-7.907c1.209-5.539-.486-9.946-4.65-12.092-1.358-.7-2.77-1.054-4.198-1.054-.324,0-.646.019-.967.055-1.536-1.959-3.663-3.15-6.245-3.417-2.865-.296-5.487.648-7.509,2.699-1.43,1.45-2.551,3.413-3.333,5.834-.149.462-.283.939-.404,1.427-.892,1.161-1.602,2.614-2.115,4.335-.594,1.991-.911,4.334-.93,6.716-5.011,1.232-9.609,3.81-13.351,7.552-5.405,5.406-8.382,12.592-8.382,20.237v42.412l1.819.412c.071.016,1.759.393,3.914.393c1.087,0,2.105-.091,3.047-.271-.467.729-.491,1.529-.301,2.148.664,2.158,3.436,2.158,4.48,2.158c2.504,0,5.372-.583,7.749-1.566-.581,2.612-.014,3.916.53,4.706.859,1.248,2.286,1.881,4.238,1.881c1.049,0,2.151-.169,3.216-.332.877-.134,1.784-.273,2.449-.273s1.572.139,2.449.273c1.066.163,2.168.332,3.216.332h.001c1.952,0,3.378-.633,4.238-1.88.544-.79,1.111-2.094.53-4.706c2.378.983,5.245,1.566,7.749,1.566c1.044,0,3.816,0,4.48-2.158.19-.619.166-1.419-.301-2.148.943.179,1.96.27,3.048.27v0Zm-12.252-73.184c.75-3.013.918-6.39.46-9.266-.073-.46-.163-.903-.267-1.334.265.084.532.195.802.335.703.362,2.841,1.463,2.459,5.477-.213,2.237-1.174,4.878-2.638,7.247-.222.359-.44.687-.654.987-1.176,1.655-2.182,2.44-2.546,2.575-.344.019-.696.059-1.055.118c1.054-.687,1.84-1.859,2.423-3.143.451-.988.78-2.044,1.016-2.996ZM658.314,255.9c.181,0,.369.01.559.03.386.04,1.16.121,1.979.652.539.35,1.098.894,1.578,1.753.274.491.523,1.083.728,1.801.043.151.083.306.121.463.476,1.984.523,4.434.128,6.857-.128-.651-.279-1.281-.457-1.877-.374-1.254-.854-2.366-1.431-3.326-.412-.685-.873-1.294-1.384-1.822-.021-.021-.042-.041-.063-.062-.568-.575-1.194-1.049-1.869-1.417-1.111-.605-2.351-.922-3.673-.932c1.03-1.409,2.297-2.12,3.784-2.12Zm-8.418,13.834c.198-1.618.572-3.084,1.101-4.254.305-.673.738-1.47,1.409-2.04.525-.446,1.195-.753,2.064-.753.347,0,.662.05.949.137.829.252,1.423.822,1.861,1.455.276.397.49.819.663,1.201.214.473.402.996.564,1.557.384,1.327.617,2.871.682,4.509.025.647.025,1.308-.003,1.977-.006.139-.013.275-.022.41-.038.633-.099,1.206-.173,1.721-.029.186-.062.371-.099.556-.108.53-.255,1.052-.461,1.556-.308.756-.811,1.304-1.349,1.839-.344.343-.701.68-1.03,1.064-.053.062-.111.133-.172.21-.557.702-1.375,1.923-1.411,1.982-.111-.18-.227-.361-.346-.541-.882-1.332-1.977-2.636-3.264-3.508-.207-.279-.563-1.156-.821-2.6-.063-.351-.119-.734-.166-1.151-.053-.47-.094-.982-.118-1.536-.029-.669-.029-1.33-.004-1.977.025-.621.074-1.227.146-1.814Zm10.24,77.951c-.693,0-1.616-.141-2.509-.278-.379-.058-.763-.116-1.146-.168-.679-.091-1.358-.159-2.01-.159s-1.331.068-2.01.159c-.384.051-.767.11-1.146.168-.893.137-1.816.278-2.509.278-.144,0-.258-.006-.347-.014.009-.372.122-1.168.691-2.659.025-.066.049-.133.074-.199.825-2.221,1.435-4.844,1.885-7.537.358-2.138.615-4.318.8-6.376.308.301.611.602.911.902l1.652,1.651l1.652-1.652c.299-.299.603-.6.91-.902.185,2.057.442,4.238.8,6.376.451,2.692,1.06,5.315,1.885,7.536.025.066.049.134.074.199.569,1.491.681,2.286.691,2.659-.09.009-.204.016-.348.016v0Zm-1.203-24.645c-.804.604-1.561,1.221-2.282,1.845-.763.66-1.486,1.326-2.181,1.992-.695-.666-1.419-1.332-2.181-1.992-.721-.623-1.478-1.24-2.282-1.845-.728-.547-1.494-1.084-2.308-1.605-.814-.522-1.674-1.029-2.59-1.515-1.126-.597-1.774-1.354-1.69-1.975.051-.382.372-.723.763-.811.18-.04.351-.078.513-.114c2.899-.638,4.037-1.132,6.426-4.553c1.296-1.856,2.898-2.012,3.237-2.024l.011.018.195-.018c.291.007,1.934.129,3.257,2.025c2.389,3.421,3.527,3.915,6.426,4.553.162.036.333.073.513.114.391.088.712.429.763.811.083.621-.565,1.378-1.69,1.975-.916.486-1.775.993-2.589,1.515-.816.52-1.582,1.057-2.311,1.604Zm15.34,13.244l-4.025-7.304-.355,8.332c-.017.406-.078,2.86.821,5.209-1.319-.181-2.843-.546-4.27-1.171-1.803-.79-3.032-1.798-3.67-3.005-.757-3.75-1.143-7.936-1.338-11.336c1.368-1.052,2.875-2.055,4.583-2.961c2.942-1.56,4.487-4.073,4.132-6.722-.311-2.322-2.066-4.231-4.367-4.748-.188-.042-.365-.081-.534-.118-1.021-.225-1.486-.333-1.812-.55-.407-.271-.942-.903-1.788-2.115-2.673-3.828-6.396-4.022-7.115-4.022-.024,0-.046,0-.066,0-.019,0-.041,0-.065,0-.719,0-4.442.194-7.115,4.022-.846,1.212-1.381,1.845-1.788,2.115-.326.217-.791.325-1.812.55-.169.037-.347.076-.534.118-2.301.518-4.056,2.426-4.367,4.748-.355,2.649,1.19,5.162,4.132,6.722c1.709.906,3.217,1.91,4.585,2.963-.034.595-.074,1.214-.122,1.851-.267,3.609-.682,6.808-1.225,9.495-.64,1.202-1.866,2.207-3.664,2.994-1.427.625-2.951.991-4.27,1.171.899-2.349.838-4.804.821-5.209l-.355-8.332-4.025,7.304c-1.068,1.938-3.638,2.345-5.606,2.345-.377,0-.734-.015-1.062-.038v-38.508c0-6.397,2.491-12.411,7.014-16.934c2.945-2.944,6.521-5.027,10.423-6.122.394,2.238,1.185,4.592,2.764,5.626c1.91,1.251,3.622,5.073,4.071,6.313l2.19,6.086c0,0,2.199-6.073,2.204-6.086.72-1.988,1.82-3.937,3.363-5.44c1.703-1.659,4.073-2.474,6.329-3.055c1.046-.269,1.779-.541,2.564-1.164c1.807,1.042,3.489,2.327,5.003,3.841c4.523,4.523,7.014,10.537,7.014,16.934v38.508c-.327.023-.685.038-1.061.038h-.001c-1.963,0-4.533-.407-5.601-2.345Z" fill="#fff"/><path d="M636.165,296.162c-3.12,0-5.658,2.538-5.658,5.658s2.538,5.658,5.658,5.658s5.658-2.538,5.658-5.658-2.538-5.658-5.658-5.658Zm0,6.644c-.544,0-.986-.443-.986-.986c0-.544.442-.986.986-.986s.986.442.986.986c0,.543-.442.986-.986.986Z" fill="#fff"/><path d="M672.775,296.162c-3.12,0-5.658,2.538-5.658,5.658s2.538,5.658,5.658,5.658s5.658-2.538,5.658-5.658-2.538-5.658-5.658-5.658Zm0,6.644c-.544,0-.986-.443-.986-.986c0-.544.442-.986.986-.986s.986.442.986.986c0,.543-.442.986-.986.986Z" fill="#fff"/><path d="M650.827,317.191v0c0,0,2.112.025,2.408-1.258.088-.381.016-.876-.32-1.522c0,0-2.949.871-2.088,2.78Z" fill="#fff"/><path d="M656.026,314.411c-.336.646-.408,1.141-.32,1.522.295,1.282,2.408,1.258,2.408,1.258v0c.86-1.909-2.088-2.78-2.088-2.78Z" fill="#fff"/></g></g></g></g></g></svg>
