<svg id="efkQqjEro4s1" xmlns="http://www.w3.org/2000/svg" xmlns:xlink="http://www.w3.org/1999/xlink" viewBox="0 0 200 200" shape-rendering="geometricPrecision" text-rendering="geometricPrecision" project-id="3d32878115384534afb3a48abe6c510e" export-id="e8dd866f22ba4925b379c0be778b6bca" cached="false"><defs><linearGradient id="efkQqjEro4s9-fill" x1="-74.3864" y1="-0.0003" x2="74.3871" y2="-0.0003" spreadMethod="pad" gradientUnits="userSpaceOnUse" gradientTransform="translate(0 0)"><stop id="efkQqjEro4s9-fill-0" offset="0%" stop-color="#d1f291"/><stop id="efkQqjEro4s9-fill-1" offset="100%" stop-color="#a9db61"/></linearGradient></defs><g transform="matrix(1.34432 0 0 1.344321 -778.960789 -538.776986)"><g transform="translate(0 0.000001)"><g transform="translate(0 0.000001)"><g transform="translate(0 0.000001)"><g transform="translate(0 0.000001)"><g transform="translate(0 0.000001)"><g><circle r="74.387" transform="translate(653.833 475.167)" fill="url(#efkQqjEro4s9-fill)"/><path d="M588.72,511.137c.027.049.05.099.077.148c19.955,35.911,65.243,48.846,101.154,28.891s48.846-65.243,28.891-101.154c-.027-.049-.057-.095-.085-.144L588.72,511.137Z" fill="#a9db61"/></g><g><path d="M687.155,443.888c-5.344,0-10.311,2.255-13.796,6.154-7.088-6.547-18.812-6.629-19.36-6.629-.577,0-12.78.083-19.448,6.53-3.479-3.839-8.408-6.056-13.707-6.056-10.216,0-18.528,8.312-18.528,18.528c0,6.04,2.909,11.609,7.733,15.061-1.345,2.438-2.189,4.66-2.565,6.746-.492,2.726-.155,5.177,1.003,7.285c1.932,3.516,5.957,5.868,12.307,7.19.797.166,1.63.316,2.503.45c1.468,4.194,7.353,13.439,30.699,13.439c23.343,0,29.229-9.242,30.698-13.437.876-.135,1.711-.285,2.511-.451c6.349-1.321,10.375-3.673,12.307-7.189c1.158-2.108,1.495-4.559,1.003-7.285-.377-2.086-1.221-4.309-2.566-6.747c4.824-3.452,7.733-9.021,7.733-15.061.001-10.217-8.31-18.528-18.527-18.528Zm-10.028,57.834c-5.596,4.954-15.667,5.993-23.13,5.993-13.154,0-19.651-3.098-22.785-5.698-.934-.774-1.623-1.543-2.132-2.246c2.683.187,5.687.277,9.092.277c3.183,0,6.367-.077,9.177-.146c2.416-.059,4.698-.114,6.65-.114s4.235.055,6.652.114c2.81.068,5.994.146,9.176.146.001,0,.002,0,.003,0c3.401,0,6.401-.09,9.08-.276-.443.614-1.024,1.277-1.783,1.95Zm16.374-27.212l-2.34,1.231l1.418,2.232c3.136,4.935,4.032,8.7,2.664,11.191-1.589,2.892-6.261,4.392-11.292,5.172l-1.505.188c-3.419.427-7.548.634-12.621.634-3.123,0-6.141-.073-9.059-.144-2.447-.059-4.758-.115-6.769-.115s-4.323.056-6.77.115c-2.918.071-5.935.144-9.058.144-5.073,0-9.202-.207-12.621-.634l-1.454-.181c-5.048-.777-9.743-2.279-11.336-5.179-1.368-2.491-.473-6.256,2.663-11.19l1.418-2.232-2.34-1.231c-4.509-2.372-7.31-7.006-7.31-12.094c0-7.53,6.126-13.656,13.656-13.656c4.724,0,9.048,2.391,11.568,6.396l2.06,3.275l2.063-3.273c2.153-3.417,6.659-5.102,10.059-5.914c3.938-.94,7.374-.958,7.405-.959.031,0,3.166.011,6.987.933c3.388.818,7.974,2.538,10.575,6.082l2.119,2.887l1.907-3.031c2.52-4.005,6.844-6.396,11.568-6.396c7.53,0,13.656,6.126,13.656,13.656-.001,5.087-2.802,9.722-7.311,12.093Z" fill="#fff"/><path d="M618.132,454.778c-4.779,0-8.666,3.888-8.666,8.666c0,4.779,3.888,8.666,8.666,8.666s8.666-3.888,8.666-8.666c0-4.779-3.888-8.666-8.666-8.666Zm0,12.46c-2.092,0-3.794-1.702-3.794-3.794s1.702-3.794,3.794-3.794s3.794,1.702,3.794,3.794-1.702,3.794-3.794,3.794Z" fill="#fff"/><path d="M689.698,454.778c-4.779,0-8.666,3.888-8.666,8.666c0,4.779,3.888,8.666,8.666,8.666s8.666-3.888,8.666-8.666c0-4.779-3.888-8.666-8.666-8.666Zm0,12.46c-2.092,0-3.794-1.702-3.794-3.794s1.702-3.794,3.794-3.794s3.794,1.702,3.794,3.794-1.702,3.794-3.794,3.794Z" fill="#fff"/><path d="M645.375,485.506c-1.344,0-2.435,1.09-2.435,2.435s1.09,2.435,2.435,2.435s2.435-1.09,2.435-2.435-1.09-2.435-2.435-2.435Z" fill="#fff"/><path d="M662.426,485.506c-1.345,0-2.435,1.09-2.435,2.435s1.09,2.435,2.435,2.435s2.435-1.09,2.435-2.435-1.09-2.435-2.435-2.435Z" fill="#fff"/></g></g></g></g></g></g></g></svg>
