<svg id="eFEsMLqaQot1" xmlns="http://www.w3.org/2000/svg" xmlns:xlink="http://www.w3.org/1999/xlink" viewBox="0 0 200 200" shape-rendering="geometricPrecision" text-rendering="geometricPrecision" project-id="3d32878115384534afb3a48abe6c510e" export-id="bd9d381a894e4284bc44e301aa869290" cached="false"><defs><linearGradient id="eFEsMLqaQot8-fill" x1="-74.3864" y1="-0.0003" x2="74.3871" y2="-0.0003" spreadMethod="pad" gradientUnits="userSpaceOnUse" gradientTransform="translate(0 0)"><stop id="eFEsMLqaQot8-fill-0" offset="0%" stop-color="#ff7898"/><stop id="eFEsMLqaQot8-fill-1" offset="100%" stop-color="#e25973"/></linearGradient></defs><g transform="matrix(1.344321 0 0 1.344321 -553.115535 -306.209453)"><g transform="translate(0 0.000001)"><g transform="translate(0 0.000001)"><g transform="translate(0 0.000001)"><g transform="translate(0 0.000001)"><g><circle r="74.387" transform="translate(485.833 302.167)" fill="url(#eFEsMLqaQot8-fill)"/><path d="M420.72,338.137c.027.049.05.099.077.148c19.955,35.911,65.243,48.846,101.154,28.891s48.846-65.243,28.891-101.154c-.027-.049-.057-.095-.085-.144L420.72,338.137Z" fill="#e25973"/></g><g><path d="M511.83,298.746c-3.873-.145-7.929.248-11.588,1.575-3.712,1.346-8.598,4.92-6.775,9.539.818,2.072,2.935,3.41,5.393,3.41.887,0,1.766-.17,2.613-.504c3.272-1.292,5.004-4.697,3.861-7.591-.27-.683-.681-1.285-1.198-1.787c1.991-.501,4.479-.81,7.547-.695c1.086.037,2.006-.81,2.047-1.9s-.81-2.007-1.9-2.047Zm-12.222,9.296c-.247.098-.506.149-.748.149-.425,0-.645-.153-.67-.198-.028-.113.217-.692,1.003-1.002.247-.098.506-.149.748-.149.424,0,.645.153.669.198.029.113-.216.692-1.002,1.002Z" fill="#fff"/><path d="M471.751,300.321c-3.66-1.327-7.716-1.72-11.588-1.575-1.09.041-1.94.957-1.9,2.047s.961,1.936,2.047,1.9c3.068-.116,5.556.194,7.547.695-.517.502-.928,1.104-1.198,1.787-1.143,2.894.59,6.3,3.861,7.591.847.335,1.727.504,2.613.504c2.458,0,4.575-1.339,5.393-3.41c1.823-4.619-3.063-8.193-6.775-9.539Zm2.052,7.673c-.025.045-.245.198-.67.198-.242,0-.501-.052-.748-.149-.786-.31-1.031-.889-1.003-1.002.025-.045.245-.198.669-.198.242,0,.501.052.748.149.787.31,1.032.889,1.004,1.002Z" fill="#fff"/><path d="M472.558,279.94c0,0,2.145-7.109-3.24-10.833-.555-.384-8.617,8.906-7.94,17.547c0,0,6.779-5.191,11.18-6.714Z" fill="#fff"/><path d="M510.615,286.654c.677-8.641-7.385-17.931-7.94-17.547-5.385,3.724-3.24,10.833-3.24,10.833c4.401,1.523,11.18,6.714,11.18,6.714Z" fill="#fff"/><path d="M538.91,297.301l-2.314-.287c-.087-.011-8.778-1.21-14.536-8.058-.6-.714-1.242-1.417-1.915-2.098-.076-5.842-2.006-20.527-18.495-28.329l-1.379-.653-1.224.912c-.304.227-6.946,5.294-7.92,15.565h-10.259c-.962-10.482-7.66-15.378-7.967-15.597l-1.213-.865-1.347.637c-16.489,7.802-18.419,22.487-18.495,28.329-.673.681-1.315,1.384-1.915,2.098-5.758,6.848-14.448,8.047-14.529,8.057l-2.314.287.089,2.33c.482,12.59,4.68,22.973,12.475,30.875-.641.263-1.277.54-1.905.833-.988.462-1.415,1.637-.953,2.625.335.718,1.047,1.139,1.791,1.139.28,0,.564-.06.835-.186c1.134-.53,2.301-1.004,3.482-1.43c5.454,4.524,12.204,7.965,20.122,10.253c5.384,1.822,11.094,2.746,16.971,2.746s11.587-.924,16.971-2.746c7.918-2.288,14.668-5.729,20.123-10.253c1.181.426,2.348.9,3.482,1.43.271.126.555.186.835.186.743,0,1.455-.422,1.791-1.139.462-.988.035-2.163-.953-2.625-.628-.293-1.264-.57-1.905-.833c7.795-7.902,11.993-18.286,12.475-30.875l.096-2.328Zm-37.405,41.576l-.114.036c-4.874,1.656-10.053,2.496-15.395,2.496-5.341,0-10.521-.84-15.395-2.496l-.114-.036c-5.939-1.71-11.136-4.11-15.528-7.162c6.3-1.47,12.182-1.82,14.979-1.901c1.692,3.478,5.326,5.89,9.526,5.89c1.48,0,2.908-.293,4.248-.871.638-.164,1.331-.546,2.262-1.134.005-.003.01-.006.015-.009.005.003.01.006.014.009.932.588,1.624.97,2.263,1.134c1.34.578,2.768.871,4.248.871c4.201,0,7.835-2.412,9.526-5.891c2.791.078,8.678.425,14.993,1.9-4.39,3.053-9.588,5.453-15.528,7.164Zm20.923-11.637c-.482.478-.979.945-1.49,1.4-7.157-2.058-14.158-2.61-17.896-2.753.007-.156.012-.312.012-.47c0-.59-.053-1.174-.153-1.746c3.508-.859,10.671-2.218,17.095-.969c1.07.207,2.107-.491,2.315-1.562s-.491-2.107-1.562-2.315c-7.547-1.467-15.671.196-19.303,1.133-.091-.142-.185-.283-.284-.421-1.197-1.674-2.856-2.952-4.798-3.696l-.888,2.319-.888,2.318c2.126.815,3.5,2.754,3.5,4.941c0,2.934-2.5,5.32-5.573,5.32-.864,0-1.692-.183-2.46-.545l-.676-.318-.086.012c-.463-.265-1.219-.749-1.883-1.212l-.051-.035l3.082-3.082c1.063-1.063.31-2.882-1.194-2.882h-6.515c-1.504,0-2.257,1.818-1.194,2.882l3.082,3.082-.05.035c-.665.463-1.421.948-1.884,1.213l-.086-.012-.676.318c-.768.362-1.595.545-2.46.545-3.073,0-5.573-2.387-5.573-5.32c0-2.187,1.374-4.126,3.5-4.941l-.888-2.318-.888-2.319c-1.942.744-3.601,2.022-4.798,3.696-.098.137-.191.277-.282.418-3.637-.937-11.752-2.595-19.292-1.13-1.071.208-1.77,1.245-1.562,2.315.208,1.071,1.245,1.77,2.315,1.562c6.417-1.247,13.57.107,17.083.966-.1.574-.153,1.158-.153,1.749c0,.158.004.314.011.47-3.741.143-10.734.697-17.883,2.752-.511-.456-1.008-.922-1.49-1.4-6.62-6.563-10.379-15.186-11.188-25.655c3.534-.881,10.327-3.277,15.442-9.361.712-.847,1.495-1.678,2.326-2.469l.819-.78-.032-1.131c-.062-2.168.137-6.513,2.154-11.253c2.318-5.444,6.329-9.717,11.937-12.721.547.565,1.239,1.375,1.924,2.434c1.963,3.034,2.959,6.596,2.959,10.588v2.539h20.182v-2.539c0-3.91,1-7.451,2.973-10.524.689-1.072,1.384-1.901,1.935-2.484c5.594,3.003,9.598,7.272,11.912,12.708c2.018,4.739,2.216,9.084,2.154,11.253l-.032,1.131.819.78c.831.791,1.613,1.622,2.326,2.469c5.115,6.084,11.908,8.48,15.442,9.361-.81,10.468-4.568,19.091-11.188,25.654Z" fill="#fff"/></g></g></g></g></g></g></svg>
