<svg id="ePlTXvLzJiH1" xmlns="http://www.w3.org/2000/svg" xmlns:xlink="http://www.w3.org/1999/xlink" viewBox="0 0 200 200" shape-rendering="geometricPrecision" text-rendering="geometricPrecision" project-id="3d32878115384534afb3a48abe6c510e" export-id="879bfa8c42694e739d265c9f4bb683ce" cached="false"><defs><linearGradient id="ePlTXvLzJiH10-fill" x1="-74.3864" y1="-0.0003" x2="74.3871" y2="-0.0003" spreadMethod="pad" gradientUnits="userSpaceOnUse" gradientTransform="translate(0 0)"><stop id="ePlTXvLzJiH10-fill-0" offset="0%" stop-color="#89b0f7"/><stop id="ePlTXvLzJiH10-fill-1" offset="100%" stop-color="#6991e8"/></linearGradient></defs><g transform="translate(-486.79718 -41.361801)"><g transform="matrix(1.344321 0 0 1.344321 -179.241314 -34.968768)"><g><g><g><g><g><g><circle r="74.387" transform="translate(569.833 131.167)" fill="url(#ePlTXvLzJiH10-fill)"/><path d="M504.72,167.137c.027.049.05.099.077.148c19.955,35.911,65.243,48.846,101.154,28.891s48.846-65.243,28.891-101.154c-.027-.049-.057-.095-.085-.144L504.72,167.137Z" fill="#6991e8"/></g><g><path d="M601.233,138.317c3.572,0,6.478-2.906,6.478-6.478s-2.906-6.478-6.478-6.478-6.478,2.906-6.478,6.478s2.906,6.478,6.478,6.478Zm0-8.054c.869,0,1.576.707,1.576,1.576s-.707,1.576-1.576,1.576-1.576-.707-1.576-1.576.707-1.576,1.576-1.576Z" fill="#fff"/><path d="M603.279,114.593c-3.638-2.272-7.5-4.024-11.478-5.207-1.956-.582-3.944-1.025-5.952-1.331-4.199-4.074-9.573-6.855-15.592-8.058-4.732-.946-8.232-.593-8.379-.578l-2.716.286l2.48,11.458c-.857.367-1.709.76-2.553,1.183-5.498,2.749-10.507,6.563-14.917,11.356L518.79,106.367l7.655,25.284c.561,1.852.561,3.81,0,5.662l-7.655,25.284l25.382-17.336c4.41,4.792,9.419,8.607,14.917,11.356c6.369,3.185,13.129,4.799,20.091,4.799c3.291,0,6.589-.371,9.803-1.102l3.662-.833-2.238-3.016c-3.358-4.526-5.675-9.119-6.889-13.651-.958-3.579-1.235-7.138-.823-10.576.695-5.794,3.148-9.35,3.249-9.494l2.897-3.883-4.875-.009c-.027,0-.054,0-.082,0-7.076,0-14.197,1.651-20.597,4.777-3.241,1.583-6,3.306-8.437,5.268-1.98,1.594-3.665,3.411-5.295,5.168-.605.652-1.231,1.326-1.852,1.967-1.299,1.339-2.78,2.646-4.419,3.9L527.51,150.705l3.624-11.972c.842-2.781.842-5.721,0-8.502l-3.624-11.972L541,127.47l-3.099,3.838l3.813,3.079l4.743-5.873c8.846-10.36,20.467-16.066,32.724-16.066c7.573,0,14.807,2.12,21.501,6.302c6.052,3.781,11.442,9.2,15.658,15.731-2.647,4.104-5.733,7.748-9.188,10.849-3.332,2.99-6.951,5.422-10.782,7.248-.357-.509-.727-1.071-1.123-1.702-4.81-7.669-6.37-14.258-4.906-20.739l-4.781-1.08c-.948,4.197-.838,8.552.326,12.947.978,3.694,2.682,7.448,5.209,11.476.936,1.491,1.763,2.663,2.605,3.688l1.162,1.414l1.686-.712c4.974-2.101,9.643-5.093,13.878-8.893c4.166-3.738,7.833-8.186,10.901-13.222l.776-1.275-.776-1.275c-4.721-7.749-10.962-14.185-18.048-18.612Zm-52.055,24.849c.659-.679,1.303-1.374,1.926-2.045c1.581-1.704,3.074-3.313,4.776-4.684c2.148-1.73,4.606-3.261,7.514-4.681c4.507-2.201,9.41-3.586,14.379-4.078-.778,1.89-1.558,4.386-1.95,7.386-.534,4.091-.244,8.307.86,12.531c1.076,4.117,2.933,8.245,5.533,12.312-1.685.22-3.384.331-5.081.331-11.498,0-22.435-5.021-31.048-14.193c1.108-.937,2.141-1.899,3.091-2.879Zm15.066-29.977l-1.122-5.186c2.793.149,7.328.821,11.885,3.319-3.659.174-7.256.798-10.763,1.867Z" fill="#fff"/></g></g></g></g></g></g></g></g></svg>
