<svg xmlns="http://www.w3.org/2000/svg" viewBox="0 0 200 200" shape-rendering="geometricPrecision" text-rendering="geometricPrecision"><defs><linearGradient id="a" x1="-74.386" y1="0" x2="74.387" y2="0" spreadMethod="pad" gradientUnits="userSpaceOnUse"><stop offset="0%" stop-color="#89b0f7"/><stop offset="100%" stop-color="#6991e8"/></linearGradient></defs><g transform="translate(-778.961 -770)scale(1.34432)"><circle r="74.387" transform="translate(653.833 647.167)" fill="url(#a)"/><path d="M588.72 683.137c.027.049.05.099.077.148 19.955 35.911 65.243 48.846 101.154 28.891s48.846-65.243 28.891-101.154l-.085-.144z" fill="#6991e8"/></g><g fill="#fff"><path d="M85.71 96.7a9.8 9.8 0 0 0-3.634-.7c-3.366 0-6.26 1.816-7.368 4.626-.788 1.996-.592 4.29.542 6.291 1.03 1.819 2.738 3.272 4.812 4.09a9.8 9.8 0 0 0 3.634.703c3.366 0 6.259-1.817 7.368-4.626.788-1.997.592-4.29-.542-6.292-1.03-1.819-2.738-3.272-4.812-4.09m-.31 8.145c-.181.454-.881.773-1.705.773-.458 0-.94-.096-1.399-.277-1.415-.56-2.198-1.793-1.926-2.482.179-.454.88-.773 1.705-.773.457 0 .94.096 1.398.276.77.304 1.409.824 1.749 1.426.131.233.328.676.177 1.057m25.713-4.055c-1.133 2.002-1.33 4.294-.542 6.292 1.11 2.81 4.002 4.626 7.368 4.626a9.9 9.9 0 0 0 3.634-.702c2.074-.819 3.783-2.272 4.813-4.09 1.133-2.003 1.33-4.296.542-6.292-1.11-2.81-4.003-4.626-7.369-4.626a9.9 9.9 0 0 0-3.633.702c-2.075.818-3.783 2.27-4.813 4.09m5.3 3c.34-.603.977-1.122 1.748-1.427a3.9 3.9 0 0 1 1.397-.275c.824 0 1.524.317 1.705.773.271.688-.511 1.922-1.927 2.481a3.8 3.8 0 0 1-1.397.277c-.824 0-1.524-.317-1.704-.773-.15-.382.047-.825.177-1.056"/><path d="m163.886 67.647-.005-.448-.138-.426c-.19-.593-2.062-5.946-9.048-11.35-4.025-3.113-8.963-5.615-14.676-7.435-7-2.23-15.211-3.442-24.404-3.6-.418-.007-1.285-.023-3.555 1.343a22 22 0 0 0-3.918 3.007c-1.749 1.696-3.003 3.54-3.727 5.455a91 91 0 0 0-7.121-.008c-.725-1.91-1.98-3.752-3.725-5.446a22 22 0 0 0-3.918-3.007c-2.269-1.364-3.137-1.35-3.556-1.343-9.192.16-17.403 1.371-24.403 3.6-5.712 1.82-10.65 4.32-14.676 7.436-6.985 5.404-8.858 10.757-9.047 11.35l-.137.426-.006.447c-.12 9.715 6.414 19.162 9.52 23.097-4.406 5.585-4.952 14.839-1.618 27.525 2.417 9.197 6.001 16.835 6.153 17.155l.796 1.687 1.866.019c6.688.069 11.095.868 13.747 1.598 2.421 7.285 9.186 12.684 17.31 13.29v.154c0 7.135 5.806 12.941 12.941 12.941h4.627c7.136 0 12.942-5.806 12.942-12.941V152c8.024-.686 14.69-6.053 17.09-13.272 2.651-.73 7.058-1.53 13.746-1.598l1.866-.019.796-1.687c.159-.337 3.923-8.359 6.336-17.86 3.108-12.245 2.54-21.205-1.687-26.684 3.06-3.85 9.749-13.406 9.629-23.234M111.21 126.67v.004l-.132-.014zm-18.846-.156 1.354-.103 6.887-.521q.142-.01.282 0l6.874.521 1.352.103c.168 1.266-.067 2.285-.715 3.1-1.3 1.634-4.293 2.65-7.81 2.65-1.592 0-3.175-.221-4.459-.626-2.917-.918-3.684-2.572-3.808-3.816-.005-.283.01-.794.043-1.308m17.793 25.659a6.996 6.996 0 0 1-6.987 6.987h-4.627a6.996 6.996 0 0 1-6.988-6.987v-.578q1.718-.384 3.352-1.065 1.36.163 2.861.243v4.598h5.954v-4.598q1.5-.08 2.86-.243 1.742.726 3.574 1.112zm41.287-67.495c-4.63 5.11-6.32 9.542-7.44 12.477-.171.45-.366.962-.541 1.373a13 13 0 0 1-.777-.425c-1.108-.652-4.525-3.506-12.31-15.902a298 298 0 0 1-8.083-13.732l-5.226 2.855c.037.067 3.744 6.84 8.252 14.018 9.409 14.987 13.127 17.173 14.349 17.892 1.336.786 2.855 1.528 4.421 1.528.509 0 1.02-.078 1.534-.258 2.253-.79 3.076-2.945 3.946-5.228.317-.83.67-1.758 1.124-2.769.734 1.68 1.153 3.757 1.246 6.222.14 3.691-.448 8.162-1.744 13.29-1.645 6.507-4.031 12.42-5.226 15.197-4.552.141-8.104.606-10.818 1.163a18.8 18.8 0 0 0-3.529-10.561 19.7 19.7 0 0 0-9.01-6.938l-1.064 2.78-1.065 2.78a13.74 13.74 0 0 1 6.295 4.84 12.88 12.88 0 0 1 2.353 8.912 12.9 12.9 0 0 1-2.428 6.245c-2.188 3.002-5.63 5.097-9.589 5.58a14.4 14.4 0 0 1-2.978.054 14.1 14.1 0 0 1-4.843-1.296l-.81-.382-.887.13c-.89.128-1.85.224-2.871.287v-6.801a19 19 0 0 0 3.691-.878 14.8 14.8 0 0 0 2.744-1.29 11 11 0 0 0 2.901-2.521l.075-.098c1.308-1.69 2.62-4.555 1.651-8.75l-.006-.033a19 19 0 0 0-.226-.94 7 7 0 0 0-.233-.716c-.702-1.762-2.211-2.011-2.656-2.045h-.003l-.11-.008-3.567-.27-6.645-.504a8 8 0 0 0-1.183 0l-6.662.504-3.688.28a3.2 3.2 0 0 0-2.195 1.13c-.681.801-1.007 1.896-1.163 3.904-.072.94-.1 2.07-.061 2.518a9.55 9.55 0 0 0 2.19 5.318 11.2 11.2 0 0 0 2.978 2.49q1.034.6 2.237 1.034.272.096.552.187c1.063.334 2.219.576 3.425.725v6.768a35 35 0 0 1-2.873-.288l-.886-.129-.81.382q-.807.378-1.646.652-1.448.472-2.978.624a14.8 14.8 0 0 1-2.977-.008c-4.05-.43-7.58-2.548-9.808-5.604a12.9 12.9 0 0 1-2.502-7.625c0-2.706.839-5.31 2.426-7.53a13.75 13.75 0 0 1 6.296-4.841l-1.065-2.78-1.065-2.78a19.7 19.7 0 0 0-9.01 6.938 18.8 18.8 0 0 0-3.43 9.007c-.53-3.969-3.105-7.763-5.603-10.668-2.65-3.082-6.68-5.419-10.783-5.132-1.027-4.303-1.538-8.13-1.519-11.395.018-2.988.48-5.454 1.374-7.37a47 47 0 0 1 1.235 3.015c.871 2.282 1.693 4.437 3.946 5.228.513.18 1.026.258 1.534.258 1.566 0 3.085-.742 4.421-1.529 1.222-.719 4.94-2.905 14.35-17.891a305 305 0 0 0 8.251-14.019l-5.225-2.855c-.037.066-3.67 6.703-8.084 13.732-7.785 12.396-11.202 15.25-12.31 15.902a12 12 0 0 1-.777.425c-.174-.41-.37-.922-.541-1.373a54 54 0 0 0-1.423-3.457q.167-.183.322-.38c.824-1.036 1.626-2.094 2.234-3.275.632-1.23 1.03-2.576 1.003-3.966-.03-1.43-.621-2.747-1.384-3.927-1.356-2.097-2.898-4.25-5.25-5.291-2.493-1.104-5.352-1.467-8.054-1.75-.795-2.223-1.329-4.56-1.373-6.878.729-1.703 2.955-5.166 7.285-8.405 3.494-2.613 7.81-4.728 12.826-6.286 6.24-1.937 13.579-3.008 21.818-3.187 1.049.484 3.598 2.11 5.132 4.298-3.289.352-5.339.755-5.488.786l1.168 5.838c.06-.012 6.095-1.2 14.223-1.2 8.086 0 14.165 1.188 14.226 1.2l1.165-5.84c-.146-.029-2.114-.416-5.283-.763 1.533-2.2 4.095-3.834 5.148-4.32 8.239.178 15.578 1.25 21.818 3.187a50 50 0 0 1 6.109 2.33 9.5 9.5 0 0 0-1.767 4.148c-.522 3.255.604 6.298 2.756 8.738 2.143 2.43 5.315 3.846 8.481 4.278a21 21 0 0 0 3.758.17c-1.237 4.434-3.71 8.59-5.718 11.47"/><path d="M78.188 131.357c-1.827 0-2.377 1.975-1.655 3.17.314.518.863.89 1.655.89.49 0 .886-.143 1.193-.372 1.335-1.003.937-3.688-1.193-3.688m4.466 8.526c-1.363 0-2.015 1.1-1.959 2.156.053.972.703 1.904 1.959 1.904.776 0 1.319-.358 1.635-.858.753-1.192.208-3.202-1.635-3.202m2.436-6.293c-1.799 0-2.362 1.916-1.689 3.116.307.547.87.945 1.689.945q.273-.001.51-.059c.348-.082.631-.245.853-.461 1.022-.996.737-3.108-.852-3.48a2.2 2.2 0 0 0-.511-.06m37.09 1.436c.309.24.712.39 1.214.39.795 0 1.348-.376 1.66-.9.714-1.194.161-3.16-1.66-3.16-2.119 0-2.522 2.655-1.214 3.67m-4.887 8.057c.316.501.86.857 1.635.857 1.28 0 1.934-.973 1.961-1.965.028-1.037-.624-2.095-1.961-2.095-1.843.002-2.388 2.012-1.635 3.203m.925-6.453c.61-1.202.036-3.042-1.726-3.042q-.202.001-.38.033c-1.704.287-2.032 2.485-.983 3.506.25.244.578.418.984.487q.18.032.379.034c.855 0 1.429-.433 1.726-1.018m-13.215-53.403c-.313-2.166-2.313-3.606-4.24-4.244-1.44-.477-3.042-.421-4.54-.475-1.398-.05-2.707-.318-4.112-.79-2.746-.925-4.905 5.13-4.686 6.982.368 3.1 2.75 5.496 4.412 7.975 1.64 2.446 3.064 4.84 6.302 5.221 2.062.242 4.126-1.071 4.867-2.963.37-.945.324-1.97.256-2.963v-.004c-.21-3.101 2.21-5.493 1.741-8.74"/></g></svg>