<svg id="eJ6ONBaQeu41" xmlns="http://www.w3.org/2000/svg" xmlns:xlink="http://www.w3.org/1999/xlink" viewBox="0 0 200 200" shape-rendering="geometricPrecision" text-rendering="geometricPrecision" project-id="3d32878115384534afb3a48abe6c510e" export-id="721e060033634f52a6352127420a82e2" cached="false"><defs><linearGradient id="eJ6ONBaQeu47-fill" x1="-74.3865" y1="-0.0003" x2="74.3871" y2="-0.0003" spreadMethod="pad" gradientUnits="userSpaceOnUse" gradientTransform="translate(0 0)"><stop id="eJ6ONBaQeu47-fill-0" offset="0%" stop-color="#9e76ce"/><stop id="eJ6ONBaQeu47-fill-1" offset="100%" stop-color="#8858b7"/></linearGradient></defs><g transform="matrix(1.344321 0 0 1.34432 -323.236644 -306.209152)"><g transform="translate(0 0.000001)"><g transform="translate(0 0.000001)"><g transform="translate(0 0.000001)"><g><circle r="74.387" transform="translate(314.833 302.167)" fill="url(#eJ6ONBaQeu47-fill)"/><path d="M249.72,338.137c.027.049.05.099.077.148c19.955,35.911,65.243,48.846,101.154,28.891s48.846-65.243,28.891-101.154c-.027-.049-.057-.095-.085-.144L249.72,338.137Z" fill="#8858b7"/></g><g><path d="M359.354,278.548h-14.576c.986-2.017,1.793-4.267,2.408-6.73c1.59-6.363,1.37-11.957,1.36-12.192l-.347-8.08-4.006,7.025c-2.069,3.628-4.615,6.722-7.568,9.195-2.359,1.976-4.988,3.567-7.812,4.73-1.788.736-3.433,1.206-4.801,1.508h-18.374c-5.072-1.125-14.005-4.615-20.174-15.433l-4.006-7.025-.348,8.08c-.01.235-.229,5.829,1.36,12.192.615,2.463,1.422,4.713,2.408,6.73h-14.565l-.046,2.284c-.006.295-.086,7.29,5.054,12.585c3.15,3.245,7.494,5.11,12.936,5.56-.002,6.985,1.027,12.128,3.127,15.676c3.813,6.44,4.76,25.571,4.803,32.399l.004.587.281.515c.329.603,1.282,1.766,3.965,2.775c3.279,1.233,8.123,1.859,14.398,1.859c6.274,0,11.118-.625,14.398-1.859c2.683-1.009,3.635-2.172,3.965-2.775l.281-.515.004-.587c.042-6.826.987-25.954,4.803-32.399c2.101-3.548,3.129-8.691,3.127-15.676c5.442-.45,9.786-2.315,12.936-5.56c5.14-5.295,5.06-12.29,5.054-12.585l-.049-2.284Zm-69.143,0c-2.105-3.334-3.22-7.299-3.808-10.72c1.176,1.306,2.429,2.512,3.755,3.613c1.965,1.631,4.091,3.03,6.345,4.183-1.426.746-3.072,1.744-4.394,2.924h-1.898Zm5.151,30.564c-1.772-.932-2.267-3.479-1.105-5.688c1.162-2.21,3.54-3.246,5.313-2.314c1.772.932,2.267,3.478,1.105,5.688s-3.541,3.245-5.313,2.314Zm33.471,36.87c-.573.343-1.794.904-4.134,1.367-1.237-1.838-3.975-4.306-9.762-4.335v-.001c-.017,0-.034,0-.052.001-.017,0-.034-.001-.052-.001v.001c-5.806.029-8.543,2.514-9.774,4.353-2.4-.466-3.645-1.037-4.225-1.384-.018-.948-.057-2.491-.142-4.42c3.381-2.961,9.463-10.168,9.687-23.829.311-18.958-12.276-21.8-7.614-29.003s9.79-5.649,12.121-5.649s7.459-1.554,12.12,5.649c4.662,7.203-7.925,10.045-7.614,29.003.222,13.529,6.188,20.727,9.587,23.741-.088,1.969-.128,3.544-.146,4.507Zm5.575-36.87c-1.772.932-4.151-.104-5.313-2.314s-.667-4.757,1.105-5.688c1.772-.932,4.151.104,5.313,2.314c1.161,2.209.667,4.756-1.105,5.688Zm5.036-30.564h-1.886c-1.324-1.181-2.973-2.18-4.4-2.927c2.252-1.152,4.376-2.551,6.339-4.18c1.326-1.101,2.58-2.307,3.755-3.613-.587,3.421-1.703,7.385-3.808,10.72Z" fill="#fff"/></g></g></g></g></g></svg>
