<svg id="e3BskVitMrG1" xmlns="http://www.w3.org/2000/svg" xmlns:xlink="http://www.w3.org/1999/xlink" viewBox="0 0 200 200" shape-rendering="geometricPrecision" text-rendering="geometricPrecision" project-id="3d32878115384534afb3a48abe6c510e" export-id="5727d3d610074264aae7329eca17babb" cached="false"><defs><linearGradient id="e3BskVitMrG8-fill" x1="-74.3865" y1="-0.0004" x2="74.3871" y2="-0.0004" spreadMethod="pad" gradientUnits="userSpaceOnUse" gradientTransform="translate(0 0)"><stop id="e3BskVitMrG8-fill-0" offset="0%" stop-color="#ff7898"/><stop id="e3BskVitMrG8-fill-1" offset="100%" stop-color="#e25973"/></linearGradient></defs><g transform="matrix(1.344321 0 0 1.34432 -323.236644 -769.999531)"><g><g><g><g><g><circle r="74.387" transform="translate(314.833 647.167)" fill="url(#e3BskVitMrG8-fill)"/><path d="M249.72,683.137c.027.049.05.099.077.148c19.955,35.911,65.243,48.846,101.154,28.891s48.846-65.243,28.891-101.154c-.027-.049-.057-.095-.085-.144L249.72,683.137Z" fill="#e25973"/></g><g><path d="M266.022,637.521c1.23,2.011,3.609,2.468,5.78,2.468.43,0,.85-.019,1.253-.046-2.536,6.074-3.908,12.575-3.908,18.696c0,8.096,1.99,14.013,6.084,18.089c5.967,5.941,15.496,7.081,26.787,7.266.299.138.613.27.945.394c3.461,1.289,8.029,1.463,12.042,1.463s8.581-.174,12.042-1.463c.332-.124.646-.255.944-.394c11.291-.185,20.82-1.326,26.787-7.267c4.094-4.076,6.084-9.993,6.084-18.089c0-6.121-1.371-12.621-3.907-18.695c2.436.164,5.552-.017,7.023-2.423c2.013-3.292-.842-7.826-4.148-13.077-1.877-2.981-3.817-6.064-4.582-8.517-.895-2.871-3.031-4.86-6.175-5.753-3.958-1.124-8.632-.307-11.856.576-3.02.827-5.887,2.035-7.769,3.24-4.677-1.607-9.535-2.421-14.447-2.421s-9.77.814-14.448,2.421c-1.881-1.205-4.749-2.413-7.769-3.24-3.224-.883-7.898-1.7-11.856-.576-3.145.893-5.28,2.882-6.175,5.753-.765,2.453-2.706,5.536-4.583,8.517-3.306,5.252-6.161,9.786-4.148,13.078Zm16.193-22.815c2.24-.636,5.639-.422,9.324.588c3.366.922,6.116,2.264,7.094,3.113l1.05.912l1.982-.727c4.372-1.555,8.734-2.311,13.335-2.311c4.6,0,8.962.756,13.334,2.311l1.983.727l1.05-.912c.978-.849,3.728-2.191,7.094-3.113c3.686-1.01,7.084-1.224,9.324-.588c2.111.599,2.703,1.784,2.964,2.623.948,3.04,3.055,6.388,5.093,9.625c1.25,1.986,2.431,3.862,3.221,5.474.798,1.628.876,2.358.871,2.604-.243.11-1.053.36-3.128.175-1.052-.094-2.131-.262-3.21-.498l-.117-.026c-10.784-2.414-18.912-11.142-18.991-11.228l-1.737,1.591-1.737,1.591c.296.323,6.022,6.497,14.605,10.344c1.796.805,3.716,1.508,5.739,2.034c3.095,6.258,4.792,13.186,4.792,19.623c0,6.779-1.536,11.604-4.697,14.751-4.01,3.993-10.662,5.317-18.76,5.739.281-.78.431-1.562.494-2.305l.033.002c.021-.341.45-8.473-5.242-18.964-1.238-2.281-1.802-4.423-1.691-6.401c1.173.947,2.705,1.504,4.375,1.504h.001c.556,0,1.116-.063,1.664-.188c3.724-.848,6.115-4.34,5.33-7.784-.657-2.882-3.334-4.895-6.511-4.895-.556,0-1.116.063-1.664.188-1.124.256-2.126.755-2.956,1.419l-.011-.015c-.242.175-2.402,1.798-3.797,4.873-1.294,2.854-2.15,7.521,1.12,13.546.482.888.913,1.755,1.299,2.596-3.041-1.957-6.542-3.01-10.132-3.01-3.571,0-7.054,1.042-10.083,2.979.443-.961.881-1.823,1.284-2.565c3.269-6.026,2.413-10.692,1.12-13.546-1.394-3.075-3.555-4.698-3.797-4.873l-.011.015c-.831-.664-1.832-1.162-2.956-1.419-.548-.125-1.108-.188-1.664-.188-3.177,0-5.855,2.013-6.511,4.895-.784,3.444,1.607,6.935,5.33,7.784.548.125,1.108.188,1.664.188c1.671,0,3.204-.558,4.377-1.505.111,1.977-.454,4.12-1.693,6.402-3.912,7.21-4.933,13.307-5.182,16.525-.065.512-.099,1.023-.099,1.533c0,.994.135,2.104.533,3.209-8.097-.422-14.749-1.746-18.76-5.739-3.16-3.147-4.697-7.972-4.697-14.751c0-6.436,1.696-13.364,4.791-19.623c2.022-.526,3.943-1.229,5.739-2.034c8.583-3.847,14.309-10.021,14.605-10.344l-1.735-1.591-1.738-1.593c-.081.088-8.209,8.815-18.993,11.23l-.004.001v-.001c-1.119.25-2.24.427-3.332.524-2.075.185-2.885-.066-3.128-.175-.005-.246.074-.976.871-2.604.79-1.612,1.971-3.488,3.221-5.474c2.038-3.237,4.145-6.584,5.093-9.625.262-.839.854-2.024,2.965-2.623Zm32.79,66.434c-6.481,0-9.978-.663-11.779-1.841-1.124-.736-1.587-1.672-1.702-2.774-.004-.109-.021-.69.047-1.647.329-2.279,1.7-4.693,3.81-6.634c2.689-2.476,6.107-3.839,9.624-3.839s6.935,1.363,9.624,3.839c2.434,2.24,3.887,5.109,3.887,7.675c0,1.367-.407,2.513-1.732,3.38-1.802,1.178-5.299,1.841-11.779,1.841Zm15.523-36.261c.206-.047.413-.07.618-.07.949,0,1.755.518,1.918,1.23.204.895-.613,1.877-1.783,2.143-.206.047-.413.07-.617.07v0c-.949,0-1.755-.517-1.918-1.23-.204-.895.612-1.876,1.782-2.143Zm-29.231,2.143c-.162.713-.969,1.23-1.918,1.23-.204,0-.412-.024-.618-.07-1.17-.267-1.987-1.248-1.783-2.143.162-.713.969-1.23,1.918-1.23.204,0,.412.024.618.07c1.17.267,1.987,1.248,1.783,2.143Z" fill="#fff"/><path d="M305.468,677.61c0,0,8.359.407,7.819-4.604-.54-5.01-8.771-3.529-7.819,4.604Z" fill="#fff"/><path d="M316.713,673.006c-.54,5.01,7.819,4.604,7.819,4.604.952-8.133-7.279-9.614-7.819-4.604Z" fill="#fff"/></g></g></g></g></g></g></svg>
