<svg id="ewcZLG1hBtu1" xmlns="http://www.w3.org/2000/svg" xmlns:xlink="http://www.w3.org/1999/xlink" viewBox="0 0 200 200" shape-rendering="geometricPrecision" text-rendering="geometricPrecision" project-id="3d32878115384534afb3a48abe6c510e" export-id="1d17155e253d43539088a3c04a47f7f1" cached="false"><defs><linearGradient id="ewcZLG1hBtu7-fill" x1="-74.3864" y1="-0.0004" x2="74.3871" y2="-0.0004" spreadMethod="pad" gradientUnits="userSpaceOnUse" gradientTransform="translate(0 0)"><stop id="ewcZLG1hBtu7-fill-0" offset="0%" stop-color="#d1f291"/><stop id="ewcZLG1hBtu7-fill-1" offset="100%" stop-color="#a9db61"/></linearGradient></defs><g transform="matrix(1.344321 0 0 1.34432 -554.459856 -769.999531)"><g><g><g><g><circle r="74.387" transform="translate(486.833 647.167)" fill="url(#ewcZLG1hBtu7-fill)"/><path d="M421.72,683.137c.027.049.05.099.077.148c19.955,35.911,65.243,48.846,101.154,28.891s48.846-65.243,28.891-101.154c-.027-.049-.057-.095-.085-.144L421.72,683.137Z" fill="#a9db61"/></g><g><path d="M476.365,683.894c-1.84.403-3.069,1.931-2.744,3.414.324,1.483,2.079,2.359,3.919,1.956s3.068-1.931,2.744-3.414-2.079-2.359-3.919-1.956Z" fill="#fff"/><path d="M491.601,685.85c-.324,1.483.904,3.011,2.744,3.414s3.595-.473,3.919-1.956-.904-3.011-2.744-3.414-3.595.473-3.919,1.956Z" fill="#fff"/><path d="M527.889,627.832c2.429-4.889,2.976-10.46,1.584-16.111-1.041-4.224-2.812-7.042-2.887-7.16l-4.409-6.941-.08,8.222c-.061,6.292-2.264,10.843-6.546,13.525-3.48,2.179-7.495,2.657-9.709,2.739l-12.334-1.851c-2.477-.372-5.003-.56-7.507-.56s-5.03.188-7.507.56l-12.323,1.849c-2.218-.08-6.242-.553-9.72-2.724-4.289-2.677-6.491-7.231-6.545-13.535l-.071-8.239-4.418,6.955c-.075.118-1.846,2.936-2.887,7.16-1.392,5.651-.845,11.222,1.584,16.111c2.102,4.231,5.191,7.292,9.181,9.098c2.18.987,4.273,1.417,5.887,1.594-.247,2.864-.267,6.276-.037,9.485.277,3.864,1.043,9.302,3.121,13.267c5.851,11.164,5.437,16.547,5.251,17.686-.007.01-.014.021-.02.029l.014.009c-.001.005-.002.01-.002.014-.89,1.559-3.78,7.439-.534,13.205c1.41,2.505,2.964,4.173,5.966,4.173.977,0,2.015-.167,3.33-.379c2.181-.351,5.169-.833,9.732-.833c4.562,0,7.55.481,9.731.833c1.314.212,2.353.379,3.33.379c3.002,0,4.556-1.668,5.966-4.173c3.262-5.795.327-11.706-.547-13.229-.061-.353-.193-1.443.05-3.318.351-2.706,1.538-7.4,5.205-14.397c2.077-3.963,2.844-9.4,3.121-13.263.231-3.214.211-6.631-.037-9.497c1.614-.183,3.686-.614,5.841-1.581c4.017-1.806,7.123-4.868,9.226-9.102Zm-61.312,31.184c-.736-1.405-1.347-3.286-1.803-5.511.978.488,2.033.748,3.087.748c1.03,0,1.987-.248,2.809-.713.63,2.273,1.168,5.067,1.58,8.276.566,4.414.765,8.556.833,10.534-.35.303-.705.644-1.059,1.005-.8-4.147-2.628-8.96-5.447-14.339Zm1.237-11.459c.315.337.532.726.606,1.103.05.255.027.469-.062.572-.119.139-.41.15-.497.15-.482,0-1.045-.236-1.507-.631-.919-.787-.965-1.693-.782-1.906.119-.14.41-.15.497-.15.482,0,1.046.236,1.507.631.075.064.144.132.211.201l-.002.002c.009.009.019.019.029.028Zm37.608,11.459c-3.27,6.239-4.797,10.981-5.454,14.427-.382-.394-.767-.765-1.145-1.093.067-1.978.267-6.12.833-10.534.411-3.209.949-6.003,1.58-8.275.823.465,1.78.713,2.809.713v0c1.092,0,2.184-.279,3.191-.801-.457,2.247-1.071,4.146-1.814,5.563Zm-1.302-11.488c.067-.069.136-.137.211-.201.461-.395,1.024-.631,1.507-.631.086,0,.377.011.497.15.183.213.137,1.119-.782,1.906-.461.395-1.024.631-1.507.631-.086,0-.377-.011-.497-.15-.089-.104-.112-.318-.062-.572.074-.377.291-.766.606-1.103.01-.009.02-.019.029-.028l-.002-.002Zm6.561-13.757c-.171,0-.335-.003-.49-.01l-3.006-.134.497,2.968c.259,1.549.413,3.554.454,5.692-.699-.301-1.476-.459-2.299-.459-1.658,0-3.318.64-4.675,1.802-.174.149-.34.306-.499.468-2.799,2.674-4.712,8.288-5.842,17.144-.815,6.378-.896,12.023-.898,12.26l-.018,1.397c0,0,1.197.72,1.198.72c4.137,2.488,8.338,9.495,5.682,14.213-.953,1.693-1.226,1.693-1.723,1.693-.588,0-1.456-.14-2.556-.317-2.212-.356-5.554-.895-10.506-.895s-8.294.538-10.506.895c-1.099.177-1.968.317-2.555.317-.497,0-.77,0-1.723-1.693-2.592-4.604,1.496-11.751,5.589-14.213l1.197-.72-.018-1.397c-.003-.237-.084-5.882-.898-12.26-1.131-8.855-3.044-14.47-5.842-17.144-.159-.162-.325-.318-.499-.468-1.357-1.162-3.017-1.802-4.675-1.802-.787,0-1.531.146-2.205.421.042-2.125.196-4.118.454-5.658l.502-3.001-3.038.168c-.175.01-.366.015-.567.015-2.621,0-9.11-.79-12.744-8.105-1.601-3.222-2.158-6.722-1.664-10.43.261.617.55,1.213.868,1.786c1.476,2.662,3.56,4.845,6.195,6.49c4.569,2.852,9.716,3.397,12.378,3.468l.214.006l12.752-1.913c2.239-.336,4.521-.506,6.785-.506s4.546.17,6.785.506l12.766,1.915.215-.006c2.658-.073,7.798-.623,12.369-3.486c2.629-1.647,4.71-3.83,6.185-6.489.318-.574.609-1.171.87-1.79.498,3.715-.057,7.221-1.661,10.45-3.635,7.312-10.196,8.102-12.848,8.102Z" fill="#fff"/><path d="M476.034,628.37l.948,4.776c.091-.018,9.246-1.784,18.025-.002l.968-4.772c-9.762-1.981-19.53-.083-19.941-.002Z" fill="#fff"/></g></g></g></g></g></svg>
